<svg version="1.1" viewBox="0.0 0.0 600.0 371.0" fill="none" stroke="none" stroke-linecap="square" stroke-miterlimit="10" width="600" height="371" xmlns:xlink="http://www.w3.org/1999/xlink" xmlns="http://www.w3.org/2000/svg"><path fill="#ffffff" d="M0 0L600.0 0L600.0 371.0L0 371.0L0 0Z" fill-rule="nonzero"/><path fill="#efefef" d="M298.3171 71.926765C298.87805 71.92003 299.43903 71.916664 300.0 71.916664L300.0 142.05C299.7195 142.05 299.43903 142.05168 299.15857 142.05505Z" fill-rule="nonzero"/><path fill="#000000" d="M163.7839 245.64842C153.5732 204.08682 162.89566 160.13757 189.09988 126.30026C215.30411 92.46295 255.5227 72.44024 298.3171 71.926765L299.15857 142.05505C277.76135 142.31178 257.65207 152.32315 244.54994 169.24179C231.44783 186.16045 226.78659 208.13507 231.89195 228.91588Z" fill-rule="nonzero"/><path fill="#4f0a26" d="M178.88583 282.9371C172.08624 271.2978 166.99997 258.73907 163.7839 245.64842L231.89195 228.91588C233.49998 235.46121 236.04312 241.74055 239.44292 247.56023Z" fill-rule="nonzero"/><path fill="#34a853" d="M207.43742 317.57266C196.12268 307.635 186.48207 295.9401 178.88583 282.9371L239.44292 247.56023C243.24103 254.06172 248.06134 259.90918 253.71872 264.878Z" fill-rule="nonzero"/><path fill="#fe1e6b" d="M263.14832 347.5225C242.53996 341.91104 223.48526 331.66733 207.43742 317.57266L253.71872 264.878C261.74265 271.92532 271.27 277.04718 281.57416 279.8529Z" fill-rule="nonzero"/><path fill="#ee2332" d="M266.40622 348.36777C265.31693 348.09903 264.23087 347.81726 263.14832 347.5225L281.57416 279.8529C282.11545 280.0003 282.65845 280.14117 283.20312 280.27554Z" fill-rule="nonzero"/><path fill="#37a1c7" d="M300.0 71.916664C354.17484 71.916664 403.5065 103.114296 426.72778 152.06004C449.94904 201.0058 442.908 258.94827 408.64008 300.90805C374.37213 342.86783 319.0044 361.3426 266.40622 348.36777L283.20312 280.27554C309.5022 286.76297 337.18607 277.52557 354.32004 256.5457C371.45398 235.5658 374.97452 206.59456 363.3639 182.12169C351.75327 157.64882 327.08743 142.05 300.0 142.05Z" fill-rule="nonzero"/><path fill="#000000" d="M26.096874 74.90104L29.190624 74.90104L29.190624 80.86979Q29.190624 81.760414 28.909374 82.55729Q28.628124 83.33854 28.034374 83.93229Q27.45625 84.52604 26.8 84.760414Q25.89375 85.08854 24.628124 85.08854Q23.909374 85.08854 23.034374 84.979164Q22.175 84.885414 21.596874 84.58854Q21.01875 84.27604 20.534374 83.729164Q20.05 83.166664 19.8625 82.55729Q19.58125 81.604164 19.58125 80.86979L19.58125 74.90104L22.675 74.90104L22.675 81.010414Q22.675 81.83854 23.128124 82.30729Q23.58125 82.760414 24.39375 82.760414Q25.190624 82.760414 25.64375 82.30729Q26.096874 81.854164 26.096874 81.010414L26.096874 74.90104ZM34.753124 74.90104L34.753124 77.65104L36.284374 77.65104L36.284374 79.68229L34.753124 79.68229L34.753124 82.260414Q34.753124 82.729164 34.83125 82.885414Q34.971874 83.104164 35.315624 83.104164Q35.628124 83.104164 36.175 82.93229L36.378124 84.854164Q35.346874 85.08854 34.45625 85.08854Q33.409374 85.08854 32.909374 84.822914Q32.425 84.541664 32.190624 84.010414Q31.95625 83.46354 31.95625 82.24479L31.95625 79.68229L30.940624 79.68229L30.940624 77.65104L31.95625 77.65104L31.95625 76.322914L34.753124 74.90104ZM37.4875 74.90104L40.26875 74.90104L40.26875 76.791664L37.4875 76.791664L37.4875 74.90104ZM37.4875 77.65104L40.26875 77.65104L40.26875 84.916664L37.4875 84.916664L37.4875 77.65104ZM42.4875 74.90104L45.26875 74.90104L45.26875 84.916664L42.4875 84.916664L42.4875 74.90104ZM47.4875 74.90104L50.26875 74.90104L50.26875 76.791664L47.4875 76.791664L47.4875 74.90104ZM47.4875 77.65104L50.26875 77.65104L50.26875 84.916664L47.4875 84.916664L47.4875 77.65104ZM55.753124 74.90104L55.753124 77.65104L57.284374 77.65104L57.284374 79.68229L55.753124 79.68229L55.753124 82.260414Q55.753124 82.729164 55.83125 82.885414Q55.971874 83.104164 56.315624 83.104164Q56.628124 83.104164 57.175 82.93229L57.378124 84.854164Q56.346874 85.08854 55.45625 85.08854Q54.409374 85.08854 53.909374 84.822914Q53.425 84.541664 53.190624 84.010414Q52.95625 83.46354 52.95625 82.24479L52.95625 79.68229L51.940624 79.68229L51.940624 77.65104L52.95625 77.65104L52.95625 76.322914L55.753124 74.90104ZM58.4875 74.90104L61.26875 74.90104L61.26875 76.791664L58.4875 76.791664L58.4875 74.90104ZM58.4875 77.65104L61.26875 77.65104L61.26875 84.916664L58.4875 84.916664L58.4875 77.65104ZM71.45625 81.979164L65.87813 81.979164Q65.94063 82.65104 66.2375 82.979164Q66.64375 83.447914 67.28438 83.447914Q67.69063 83.447914 68.06563 83.24479Q68.3 83.104164 68.55 82.77604L71.3 83.041664Q70.65938 84.135414 69.76875 84.61979Q68.89375 85.08854 67.22188 85.08854Q65.78438 85.08854 64.95625 84.68229Q64.12813 84.260414 63.58125 83.385414Q63.05 82.49479 63.05 81.30729Q63.05 79.604164 64.12813 78.55729Q65.22188 77.49479 67.14375 77.49479Q68.70625 77.49479 69.59688 77.96354Q70.50313 78.43229 70.97188 79.33854Q71.45625 80.229164 71.45625 81.666664L71.45625 81.979164ZM68.62813 80.65104Q68.53438 79.83854 68.175 79.49479Q67.83125 79.135414 67.25313 79.135414Q66.59688 79.135414 66.20625 79.666664Q65.94063 79.99479 65.87813 80.65104L68.62813 80.65104ZM71.89375 82.90104L74.65938 82.65104Q74.83125 83.135414 75.12813 83.354164Q75.44063 83.55729 75.95625 83.55729Q76.51875 83.55729 76.83125 83.322914Q77.06563 83.15104 77.06563 82.885414Q77.06563 82.572914 76.75313 82.416664Q76.53438 82.291664 75.55 82.11979Q74.1125 81.86979 73.53438 81.666664Q72.97188 81.447914 72.58125 80.93229Q72.20625 80.416664 72.20625 79.760414Q72.20625 79.041664 72.6125 78.52604Q73.03438 78.010414 73.76875 77.760414Q74.50313 77.49479 75.7375 77.49479Q77.03438 77.49479 77.64375 77.697914Q78.26875 77.885414 78.675 78.30729Q79.09688 78.729164 79.37813 79.43229L76.7375 79.697914Q76.62813 79.33854 76.39375 79.18229Q76.06563 78.96354 75.59688 78.96354Q75.12813 78.96354 74.90938 79.135414Q74.69063 79.291664 74.69063 79.541664Q74.69063 79.80729 74.97188 79.93229Q75.2375 80.072914 76.15938 80.18229Q77.55 80.33854 78.22188 80.61979Q78.89375 80.90104 79.25313 81.43229Q79.6125 81.947914 79.6125 82.55729Q79.6125 83.197914 79.2375 83.791664Q78.8625 84.385414 78.03438 84.74479Q77.22188 85.08854 75.81563 85.08854Q73.83125 85.08854 72.9875 84.52604Q72.14375 83.947914 71.89375 82.90104ZM88.72188 74.729164L90.45625 74.729164Q89.55 76.71354 89.15938 78.385414Q88.83125 79.822914 88.83125 81.43229Q88.83125 84.55729 90.45625 87.86979L88.72188 87.86979Q87.39375 85.979164 86.84688 84.46354Q86.31563 82.947914 86.31563 81.27604Q86.31563 79.541664 86.87813 77.99479Q87.44063 76.43229 88.72188 74.729164ZM91.56563 74.90104L96.70625 74.90104Q98.39375 74.90104 99.22188 75.697914Q100.06563 76.49479 100.06563 77.96354Q100.06563 79.49479 99.14375 80.354164Q98.2375 81.197914 96.3625 81.197914L94.675 81.197914L94.675 84.916664L91.56563 84.916664L91.56563 74.90104ZM94.675 79.166664L95.425 79.166664Q96.33125 79.166664 96.69063 78.854164Q97.05 78.541664 97.05 78.05729Q97.05 77.58854 96.7375 77.260414Q96.425 76.93229 95.55 76.93229L94.675 76.93229L94.675 79.166664ZM103.925 80.010414L101.26875 79.729164Q101.425 79.02604 101.70625 78.635414Q101.9875 78.229164 102.51875 77.93229Q102.90938 77.729164 103.56563 77.61979Q104.2375 77.49479 105.01875 77.49479Q106.26875 77.49479 107.01875 77.635414Q107.78438 77.77604 108.3 78.21354Q108.64375 78.52604 108.84688 79.08854Q109.06563 79.65104 109.06563 80.166664L109.06563 83.36979Q109.06563 83.885414 109.12813 84.18229Q109.19063 84.46354 109.40938 84.916664L106.8 84.916664Q106.64375 84.635414 106.59688 84.49479Q106.55 84.33854 106.50313 84.02604Q105.95625 84.55729 105.40938 84.77604Q104.675 85.08854 103.69063 85.08854Q102.39375 85.08854 101.72188 84.479164Q101.05 83.86979 101.05 82.99479Q101.05 82.166664 101.53438 81.635414Q102.01875 81.104164 103.33125 80.83854Q104.89375 80.52604 105.34688 80.40104Q105.81563 80.27604 106.34688 80.072914Q106.34688 79.55729 106.12813 79.354164Q105.90938 79.15104 105.37813 79.15104Q104.70625 79.15104 104.3625 79.36979Q104.09688 79.541664 103.925 80.010414ZM106.34688 81.46354Q105.76875 81.68229 105.14375 81.83854Q104.3 82.05729 104.06563 82.27604Q103.83125 82.510414 103.83125 82.791664Q103.83125 83.11979 104.06563 83.33854Q104.3 83.541664 104.7375 83.541664Q105.20625 83.541664 105.59688 83.322914Q106.00313 83.08854 106.175 82.760414Q106.34688 82.43229 106.34688 81.916664L106.34688 81.46354ZM110.40938 87.68229L110.40938 77.65104L113.00313 77.65104L113.00313 78.729164Q113.55 78.05729 114.00313 77.80729Q114.6125 77.49479 115.34688 77.49479Q116.8 77.49479 117.59688 78.604164Q118.39375 79.71354 118.39375 81.354164Q118.39375 83.166664 117.51875 84.135414Q116.65938 85.08854 115.33125 85.08854Q114.69063 85.08854 114.15938 84.86979Q113.62813 84.635414 113.22188 84.21354L113.22188 87.68229L110.40938 87.68229ZM113.19063 81.30729Q113.19063 82.166664 113.55 82.58854Q113.925 82.99479 114.47188 82.99479Q114.95625 82.99479 115.28438 82.604164Q115.6125 82.197914 115.6125 81.24479Q115.6125 80.36979 115.26875 79.96354Q114.925 79.541664 114.44063 79.541664Q113.90938 79.541664 113.55 79.96354Q113.19063 80.36979 113.19063 81.30729ZM127.45625 81.979164L121.87813 81.979164Q121.94063 82.65104 122.2375 82.979164Q122.64375 83.447914 123.28438 83.447914Q123.69063 83.447914 124.06563 83.24479Q124.3 83.104164 124.55 82.77604L127.3 83.041664Q126.65938 84.135414 125.76875 84.61979Q124.89375 85.08854 123.22188 85.08854Q121.78438 85.08854 120.95625 84.68229Q120.12813 84.260414 119.58125 83.385414Q119.05 82.49479 119.05 81.30729Q119.05 79.604164 120.12813 78.55729Q121.22188 77.49479 123.14375 77.49479Q124.70625 77.49479 125.59688 77.96354Q126.50313 78.43229 126.97188 79.33854Q127.45625 80.229164 127.45625 81.666664L127.45625 81.979164ZM124.62813 80.65104Q124.53438 79.83854 124.175 79.49479Q123.83125 79.135414 123.25313 79.135414Q122.59688 79.135414 122.20625 79.666664Q121.94063 79.99479 121.87813 80.65104L124.62813 80.65104ZM128.425 77.65104L131.01875 77.65104L131.01875 78.83854Q131.39375 78.072914 131.8 77.791664Q132.20625 77.49479 132.78438 77.49479Q133.40938 77.49479 134.12813 77.86979L133.26875 79.854164Q132.78438 79.65104 132.4875 79.65104Q131.94063 79.65104 131.64375 80.104164Q131.22188 80.74479 131.22188 82.479164L131.22188 84.916664L128.425 84.916664L128.425 77.65104ZM134.39375 82.15104L137.37813 82.15104L137.37813 84.447914Q137.37813 85.71354 136.84688 86.43229Q136.31563 87.166664 135.05 87.729164L134.39375 86.510414Q135.19063 86.15104 135.4875 85.77604Q135.78438 85.416664 135.81563 84.916664L134.39375 84.916664L134.39375 82.15104Z" fill-rule="nonzero"/><path fill="#9e9e9e" d="M19.128124 99.86979Q19.128124 97.010414 20.14375 95.86979Q21.175 94.729164 23.284374 94.729164Q24.3 94.729164 24.940624 94.979164Q25.596874 95.229164 26.003124 95.635414Q26.425 96.02604 26.659374 96.46354Q26.89375 96.90104 27.034374 97.49479Q27.315624 98.61979 27.315624 99.822914Q27.315624 102.55729 26.39375 103.822914Q25.471874 105.08854 23.20625 105.08854Q21.940624 105.08854 21.159374 104.68229Q20.39375 104.27604 19.89375 103.49479Q19.534374 102.947914 19.33125 101.99479Q19.128124 101.02604 19.128124 99.86979ZM21.89375 99.86979Q21.89375 101.791664 22.221874 102.49479Q22.565624 103.18229 23.20625 103.18229Q23.628124 103.18229 23.940624 102.885414Q24.253124 102.58854 24.39375 101.947914Q24.55 101.30729 24.55 99.947914Q24.55 97.947914 24.20625 97.260414Q23.8625 96.572914 23.190624 96.572914Q22.503124 96.572914 22.190624 97.27604Q21.89375 97.979164 21.89375 99.86979ZM28.39375 102.11979L31.378124 102.11979L31.378124 104.916664L28.39375 104.916664L28.39375 102.11979ZM41.26875 104.916664L32.925 104.916664Q33.065624 103.68229 33.784374 102.58854Q34.51875 101.49479 36.51875 100.010414Q37.753124 99.104164 38.08125 98.635414Q38.425 98.166664 38.425 97.74479Q38.425 97.27604 38.08125 96.96354Q37.753124 96.635414 37.2375 96.635414Q36.70625 96.635414 36.3625 96.979164Q36.034374 97.30729 35.909374 98.15104L33.128124 97.916664Q33.284374 96.74479 33.721874 96.08854Q34.159374 95.43229 34.95625 95.08854Q35.753124 94.729164 37.159374 94.729164Q38.628124 94.729164 39.440624 95.072914Q40.26875 95.40104 40.7375 96.08854Q41.20625 96.77604 41.20625 97.635414Q41.20625 98.55729 40.659374 99.40104Q40.128124 100.229164 38.721874 101.229164Q37.878124 101.80729 37.596874 102.041664Q37.315624 102.27604 36.925 102.65104L41.26875 102.65104L41.26875 104.916664ZM50.7375 94.729164L52.175 94.729164L46.39375 105.43229L44.95625 105.43229L50.7375 94.729164ZM42.221874 97.354164Q42.221874 96.65104 42.51875 96.02604Q42.83125 95.40104 43.45625 95.072914Q44.08125 94.729164 44.940624 94.729164Q46.20625 94.729164 46.925 95.447914Q47.64375 96.166664 47.64375 97.354164Q47.64375 98.55729 46.925 99.27604Q46.20625 99.99479 44.940624 99.99479Q44.08125 99.99479 43.45625 99.666664Q42.83125 99.322914 42.51875 98.697914Q42.221874 98.05729 42.221874 97.354164ZM44.14375 97.36979Q44.14375 98.21354 44.425 98.604164Q44.596874 98.854164 44.940624 98.854164Q45.284374 98.854164 45.45625 98.604164Q45.721874 98.21354 45.721874 97.36979Q45.721874 96.52604 45.45625 96.135414Q45.284374 95.885414 44.940624 95.885414Q44.596874 95.885414 44.425 96.135414Q44.14375 96.52604 44.14375 97.36979ZM49.45625 102.77604Q49.45625 102.072914 49.753124 101.447914Q50.05 100.822914 50.675 100.479164Q51.315624 100.135414 52.159374 100.135414Q53.425 100.135414 54.14375 100.854164Q54.878124 101.572914 54.878124 102.77604Q54.878124 103.979164 54.14375 104.697914Q53.425 105.416664 52.159374 105.416664Q51.315624 105.416664 50.675 105.072914Q50.05 104.729164 49.753124 104.104164Q49.45625 103.479164 49.45625 102.77604ZM51.378124 102.791664Q51.378124 103.635414 51.64375 104.02604Q51.815624 104.260414 52.159374 104.260414Q52.503124 104.260414 52.675 104.02604Q52.95625 103.635414 52.95625 102.791664Q52.95625 101.947914 52.675 101.55729Q52.503124 101.30729 52.159374 101.30729Q51.815624 101.30729 51.64375 101.55729Q51.378124 101.947914 51.378124 102.791664Z" fill-rule="nonzero"/><path stroke="#757575" stroke-width="1.0" stroke-linecap="butt" d="M18.55 90.416664L153.73334 90.416664L299.20062 78.932396" fill-rule="nonzero"/><path fill="#9e9e9e" d="M301.20062 78.932396C301.20062 77.82783 300.30518 76.932396 299.20062 76.932396C298.09604 76.932396 297.20062 77.82783 297.20062 78.932396C297.20062 80.036964 298.09604 80.932396 299.20062 80.932396C300.30518 80.932396 301.20062 80.036964 301.20062 78.932396" fill-rule="nonzero"/><path fill="#000000" d="M26.253124 121.00066L28.95625 121.81316Q28.690624 122.95379 28.096874 123.71941Q27.51875 124.48504 26.64375 124.87566Q25.76875 125.26629 24.425 125.26629Q22.784374 125.26629 21.753124 124.79754Q20.721874 124.32879 19.95625 123.12566Q19.20625 121.92254 19.20625 120.06316Q19.20625 117.57879 20.534374 116.25066Q21.8625 114.90691 24.284374 114.90691Q26.175 114.90691 27.253124 115.67254Q28.346874 116.43816 28.8625 118.01629L26.128124 118.62566Q25.9875 118.17254 25.83125 117.95379Q25.565624 117.59441 25.190624 117.40691Q24.815624 117.21941 24.346874 117.21941Q23.3 117.21941 22.7375 118.06316Q22.315624 118.68816 22.315624 120.04754Q22.315624 121.70379 22.815624 122.32879Q23.33125 122.95379 24.2375 122.95379Q25.128124 122.95379 25.58125 122.45379Q26.05 121.95379 26.253124 121.00066ZM30.05 121.48504Q30.05 119.82879 31.159374 118.75066Q32.284374 117.67254 34.20625 117.67254Q36.378124 117.67254 37.4875 118.93816Q38.39375 119.95379 38.39375 121.43816Q38.39375 123.12566 37.284374 124.20379Q36.175 125.26629 34.20625 125.26629Q32.45625 125.26629 31.378124 124.37566Q30.05 123.26629 30.05 121.48504ZM32.83125 121.48504Q32.83125 122.45379 33.221874 122.92254Q33.628124 123.37566 34.221874 123.37566Q34.815624 123.37566 35.20625 122.92254Q35.596874 122.46941 35.596874 121.45379Q35.596874 120.50066 35.20625 120.04754Q34.815624 119.57879 34.2375 119.57879Q33.628124 119.57879 33.221874 120.04754Q32.83125 120.51629 32.83125 121.48504ZM39.409374 117.82879L42.003124 117.82879L42.003124 118.89129Q42.565624 118.23504 43.128124 117.95379Q43.70625 117.67254 44.51875 117.67254Q45.39375 117.67254 45.89375 117.98504Q46.39375 118.28191 46.721874 118.89129Q47.378124 118.18816 47.909374 117.93816Q48.45625 117.67254 49.253124 117.67254Q50.425 117.67254 51.08125 118.37566Q51.7375 119.06316 51.7375 120.53191L51.7375 125.09441L48.940624 125.09441L48.940624 120.95379Q48.940624 120.46941 48.753124 120.21941Q48.471874 119.84441 48.05 119.84441Q47.565624 119.84441 47.253124 120.20379Q46.95625 120.56316 46.95625 121.34441L46.95625 125.09441L44.175 125.09441L44.175 121.09441Q44.175 120.61004 44.1125 120.43816Q44.01875 120.17254 43.8 120.01629Q43.58125 119.84441 43.3 119.84441Q42.815624 119.84441 42.503124 120.20379Q42.20625 120.56316 42.20625 121.39129L42.20625 125.09441L39.409374 125.09441L39.409374 117.82879ZM53.409374 127.86004L53.409374 117.82879L56.003124 117.82879L56.003124 118.90691Q56.55 118.23504 57.003124 117.98504Q57.6125 117.67254 58.346874 117.67254Q59.8 117.67254 60.596874 118.78191Q61.39375 119.89129 61.39375 121.53191Q61.39375 123.34441 60.51875 124.31316Q59.659374 125.26629 58.33125 125.26629Q57.690624 125.26629 57.159374 125.04754Q56.628124 124.81316 56.221874 124.39129L56.221874 127.86004L53.409374 127.86004ZM56.190624 121.48504Q56.190624 122.34441 56.55 122.76629Q56.925 123.17254 57.471874 123.17254Q57.95625 123.17254 58.284374 122.78191Q58.6125 122.37566 58.6125 121.42254Q58.6125 120.54754 58.26875 120.14129Q57.925 119.71941 57.440624 119.71941Q56.909374 119.71941 56.55 120.14129Q56.190624 120.54754 56.190624 121.48504ZM70.03438 125.09441L67.44063 125.09441L67.44063 123.92254Q66.8625 124.64129 66.26875 124.95379Q65.675 125.26629 64.81563 125.26629Q63.675 125.26629 63.01875 124.57879Q62.3625 123.89129 62.3625 122.45379L62.3625 117.82879L65.15938 117.82879L65.15938 121.82879Q65.15938 122.51629 65.40938 122.79754Q65.65938 123.07879 66.12813 123.07879Q66.62813 123.07879 66.94063 122.70379Q67.25313 122.31316 67.25313 121.32879L67.25313 117.82879L70.03438 117.82879L70.03438 125.09441ZM74.75313 115.07879L74.75313 117.82879L76.28438 117.82879L76.28438 119.86004L74.75313 119.86004L74.75313 122.43816Q74.75313 122.90691 74.83125 123.06316Q74.97188 123.28191 75.31563 123.28191Q75.62813 123.28191 76.175 123.11004L76.37813 125.03191Q75.34688 125.26629 74.45625 125.26629Q73.40938 125.26629 72.90938 125.00066Q72.425 124.71941 72.19063 124.18816Q71.95625 123.64129 71.95625 122.42254L71.95625 119.86004L70.94063 119.86004L70.94063 117.82879L71.95625 117.82879L71.95625 116.50066L74.75313 115.07879ZM85.45625 122.15691L79.87813 122.15691Q79.94063 122.82879 80.2375 123.15691Q80.64375 123.62566 81.28438 123.62566Q81.69063 123.62566 82.06563 123.42254Q82.3 123.28191 82.55 122.95379L85.3 123.21941Q84.65938 124.31316 83.76875 124.79754Q82.89375 125.26629 81.22188 125.26629Q79.78438 125.26629 78.95625 124.86004Q78.12813 124.43816 77.58125 123.56316Q77.05 122.67254 77.05 121.48504Q77.05 119.78191 78.12813 118.73504Q79.22188 117.67254 81.14375 117.67254Q82.70625 117.67254 83.59688 118.14129Q84.50313 118.61004 84.97188 119.51629Q85.45625 120.40691 85.45625 121.84441L85.45625 122.15691ZM82.62813 120.82879Q82.53438 120.01629 82.175 119.67254Q81.83125 119.31316 81.25313 119.31316Q80.59688 119.31316 80.20625 119.84441Q79.94063 120.17254 79.87813 120.82879L82.62813 120.82879ZM86.425 117.82879L89.01875 117.82879L89.01875 119.01629Q89.39375 118.25066 89.8 117.96941Q90.20625 117.67254 90.78438 117.67254Q91.40938 117.67254 92.12813 118.04754L91.26875 120.03191Q90.78438 119.82879 90.4875 119.82879Q89.94063 119.82879 89.64375 120.28191Q89.22188 120.92254 89.22188 122.65691L89.22188 125.09441L86.425 125.09441L86.425 117.82879Z" fill-rule="nonzero"/><path fill="#9e9e9e" d="M27.26875 145.09442L18.925 145.09442Q19.065624 143.86005 19.784374 142.7663Q20.51875 141.67255 22.51875 140.18817Q23.753124 139.28192 24.08125 138.81317Q24.425 138.34442 24.425 137.92255Q24.425 137.4538 24.08125 137.1413Q23.753124 136.81317 23.2375 136.81317Q22.70625 136.81317 22.3625 137.15692Q22.034374 137.48505 21.909374 138.3288L19.128124 138.09442Q19.284374 136.92255 19.721874 136.2663Q20.159374 135.61005 20.95625 135.2663Q21.753124 134.90692 23.159374 134.90692Q24.628124 134.90692 25.440624 135.25067Q26.26875 135.5788 26.7375 136.2663Q27.20625 136.9538 27.20625 137.81317Q27.20625 138.73505 26.659374 139.5788Q26.128124 140.40692 24.721874 141.40692Q23.878124 141.98505 23.596874 142.21942Q23.315624 142.4538 22.925 142.8288L27.26875 142.8288L27.26875 145.09442ZM29.8 139.7038Q29.14375 139.36005 28.846874 138.92255Q28.425 138.34442 28.425 137.5788Q28.425 136.31317 29.6125 135.5163Q30.534374 134.90692 32.05 134.90692Q34.065624 134.90692 35.01875 135.67255Q35.9875 136.43817 35.9875 137.59442Q35.9875 138.2663 35.596874 138.86005Q35.315624 139.29755 34.70625 139.7038Q35.51875 140.09442 35.909374 140.73505Q36.315624 141.37567 36.315624 142.15692Q36.315624 142.90692 35.971874 143.56317Q35.628124 144.21942 35.1125 144.5788Q34.6125 144.92255 33.8625 145.09442Q33.128124 145.2663 32.26875 145.2663Q30.675 145.2663 29.83125 144.8913Q29.003124 144.5163 28.565624 143.78192Q28.128124 143.04755 28.128124 142.1413Q28.128124 141.2663 28.534374 140.65692Q28.940624 140.04755 29.8 139.7038ZM31.05 137.73505Q31.05 138.25067 31.378124 138.5788Q31.70625 138.8913 32.2375 138.8913Q32.721874 138.8913 33.01875 138.5788Q33.33125 138.2663 33.33125 137.7663Q33.33125 137.25067 33.003124 136.92255Q32.690624 136.59442 32.190624 136.59442Q31.690624 136.59442 31.3625 136.92255Q31.05 137.23505 31.05 137.73505ZM30.89375 142.04755Q30.89375 142.71942 31.3 143.1413Q31.70625 143.56317 32.221874 143.56317Q32.721874 143.56317 33.1125 143.1413Q33.51875 142.7038 33.51875 142.04755Q33.51875 141.37567 33.1125 140.9538Q32.721874 140.53192 32.190624 140.53192Q31.675 140.53192 31.284374 140.9538Q30.89375 141.36005 30.89375 142.04755ZM37.39375 142.29755L40.378124 142.29755L40.378124 145.09442L37.39375 145.09442L37.39375 142.29755ZM50.190624 137.3288L47.409374 137.67255Q47.3 137.09442 47.05 136.86005Q46.8 136.61005 46.425 136.61005Q45.7375 136.61005 45.3625 137.29755Q45.096874 137.78192 44.95625 139.40692Q45.45625 138.8913 45.9875 138.65692Q46.51875 138.40692 47.20625 138.40692Q48.55 138.40692 49.471874 139.37567Q50.39375 140.3288 50.39375 141.79755Q50.39375 142.78192 49.925 143.61005Q49.45625 144.42255 48.628124 144.84442Q47.8 145.2663 46.55 145.2663Q45.05 145.2663 44.128124 144.75067Q43.221874 144.23505 42.675 143.11005Q42.14375 141.98505 42.14375 140.1413Q42.14375 137.42255 43.284374 136.17255Q44.425 134.90692 46.440624 134.90692Q47.64375 134.90692 48.33125 135.18817Q49.034374 135.4538 49.4875 135.98505Q49.940624 136.5163 50.190624 137.3288ZM45.05 141.79755Q45.05 142.61005 45.45625 143.0788Q45.878124 143.53192 46.471874 143.53192Q47.01875 143.53192 47.378124 143.11005Q47.753124 142.68817 47.753124 141.86005Q47.753124 141.0163 47.3625 140.5788Q46.9875 140.12567 46.425 140.12567Q45.846874 140.12567 45.440624 140.56317Q45.05 140.98505 45.05 141.79755ZM59.7375 134.90692L61.175 134.90692L55.39375 145.61005L53.95625 145.61005L59.7375 134.90692ZM51.221874 137.53192Q51.221874 136.8288 51.51875 136.2038Q51.83125 135.5788 52.45625 135.25067Q53.08125 134.90692 53.940624 134.90692Q55.20625 134.90692 55.925 135.62567Q56.64375 136.34442 56.64375 137.53192Q56.64375 138.73505 55.925 139.4538Q55.20625 140.17255 53.940624 140.17255Q53.08125 140.17255 52.45625 139.84442Q51.83125 139.50067 51.51875 138.87567Q51.221874 138.23505 51.221874 137.53192ZM53.14375 137.54755Q53.14375 138.3913 53.425 138.78192Q53.596874 139.03192 53.940624 139.03192Q54.284374 139.03192 54.45625 138.78192Q54.721874 138.3913 54.721874 137.54755Q54.721874 136.7038 54.45625 136.31317Q54.284374 136.06317 53.940624 136.06317Q53.596874 136.06317 53.425 136.31317Q53.14375 136.7038 53.14375 137.54755ZM58.45625 142.9538Q58.45625 142.25067 58.753124 141.62567Q59.05 141.00067 59.675 140.65692Q60.315624 140.31317 61.159374 140.31317Q62.425 140.31317 63.14375 141.03192Q63.878124 141.75067 63.878124 142.9538Q63.878124 144.15692 63.14375 144.87567Q62.425 145.59442 61.159374 145.59442Q60.315624 145.59442 59.675 145.25067Q59.05 144.90692 58.753124 144.28192Q58.45625 143.65692 58.45625 142.9538ZM60.378124 142.96942Q60.378124 143.81317 60.64375 144.2038Q60.815624 144.43817 61.159374 144.43817Q61.503124 144.43817 61.675 144.2038Q61.95625 143.81317 61.95625 142.96942Q61.95625 142.12567 61.675 141.73505Q61.503124 141.48505 61.159374 141.48505Q60.815624 141.48505 60.64375 141.73505Q60.378124 142.12567 60.378124 142.96942Z" fill-rule="nonzero"/><path stroke="#757575" stroke-width="1.0" stroke-linecap="butt" d="M18.55 130.59442L153.73334 130.59442L194.64488 130.59442" fill-rule="nonzero"/><path fill="#9e9e9e" d="M196.64488 130.59442C196.64488 129.48985 195.74945 128.59442 194.64488 128.59442C193.54031 128.59442 192.64488 129.48985 192.64488 130.59442C192.64488 131.69899 193.54031 132.59442 194.64488 132.59442C195.74945 132.59442 196.64488 131.69899 196.64488 130.59442" fill-rule="nonzero"/><path fill="#000000" d="M19.70625 207.43437L22.8 207.43437L22.8 217.45L19.70625 217.45L19.70625 207.43437ZM24.39375 210.18437L26.9875 210.18437L26.9875 211.37187Q27.565624 210.65312 28.159374 210.34062Q28.753124 210.02812 29.6125 210.02812Q30.76875 210.02812 31.409374 210.71562Q32.065624 211.40312 32.065624 212.84062L32.065624 217.45L29.26875 217.45L29.26875 213.45Q29.26875 212.77812 29.01875 212.49687Q28.76875 212.2 28.315624 212.2Q27.8 212.2 27.4875 212.59062Q27.175 212.96562 27.175 213.96562L27.175 217.45L24.39375 217.45L24.39375 210.18437ZM33.6125 207.43437L38.221874 207.43437Q39.58125 207.43437 40.409374 207.80937Q41.253124 208.16875 41.8 208.85625Q42.346874 209.54375 42.58125 210.46562Q42.83125 211.37187 42.83125 212.40312Q42.83125 214.0125 42.471874 214.90312Q42.1125 215.77812 41.45625 216.3875Q40.815624 216.98125 40.065624 217.16875Q39.05 217.45 38.221874 217.45L33.6125 217.45L33.6125 207.43437ZM36.70625 209.7L36.70625 215.16875L37.471874 215.16875Q38.440624 215.16875 38.846874 214.96562Q39.26875 214.74687 39.4875 214.21562Q39.721874 213.66875 39.721874 212.46562Q39.721874 210.87187 39.20625 210.29375Q38.690624 209.7 37.4875 209.7L36.70625 209.7ZM52.45625 214.5125L46.878124 214.5125Q46.940624 215.18437 47.2375 215.5125Q47.64375 215.98125 48.284374 215.98125Q48.690624 215.98125 49.065624 215.77812Q49.3 215.6375 49.55 215.30937L52.3 215.575Q51.659374 216.66875 50.76875 217.15312Q49.89375 217.62187 48.221874 217.62187Q46.784374 217.62187 45.95625 217.21562Q45.128124 216.79375 44.58125 215.91875Q44.05 215.02812 44.05 213.84062Q44.05 212.1375 45.128124 211.09062Q46.221874 210.02812 48.14375 210.02812Q49.70625 210.02812 50.596874 210.49687Q51.503124 210.96562 51.971874 211.87187Q52.45625 212.7625 52.45625 214.2L52.45625 214.5125ZM49.628124 213.18437Q49.534374 212.37187 49.175 212.02812Q48.83125 211.66875 48.253124 211.66875Q47.596874 211.66875 47.20625 212.2Q46.940624 212.52812 46.878124 213.18437L49.628124 213.18437ZM52.89375 215.43437L55.659374 215.18437Q55.83125 215.66875 56.128124 215.8875Q56.440624 216.09062 56.95625 216.09062Q57.51875 216.09062 57.83125 215.85625Q58.065624 215.68437 58.065624 215.41875Q58.065624 215.10625 57.753124 214.95Q57.534374 214.825 56.55 214.65312Q55.1125 214.40312 54.534374 214.2Q53.971874 213.98125 53.58125 213.46562Q53.20625 212.95 53.20625 212.29375Q53.20625 211.575 53.6125 211.05937Q54.034374 210.54375 54.76875 210.29375Q55.503124 210.02812 56.7375 210.02812Q58.034374 210.02812 58.64375 210.23125Q59.26875 210.41875 59.675 210.84062Q60.096874 211.2625 60.378124 211.96562L57.7375 212.23125Q57.628124 211.87187 57.39375 211.71562Q57.065624 211.49687 56.596874 211.49687Q56.128124 211.49687 55.909374 211.66875Q55.690624 211.825 55.690624 212.075Q55.690624 212.34062 55.971874 212.46562Q56.2375 212.60625 57.159374 212.71562Q58.55 212.87187 59.221874 213.15312Q59.89375 213.43437 60.253124 213.96562Q60.6125 214.48125 60.6125 215.09062Q60.6125 215.73125 60.2375 216.325Q59.8625 216.91875 59.034374 217.27812Q58.221874 217.62187 56.815624 217.62187Q54.83125 217.62187 53.9875 217.05937Q53.14375 216.48125 52.89375 215.43437ZM62.4875 207.43437L65.26875 207.43437L65.26875 209.325L62.4875 209.325L62.4875 207.43437ZM62.4875 210.18437L65.26875 210.18437L65.26875 217.45L62.4875 217.45L62.4875 210.18437ZM72.44063 210.18437L75.05 210.18437L75.05 217.04375L75.05 217.37187Q75.05 218.05937 74.75313 218.66875Q74.47188 219.29375 73.9875 219.66875Q73.50313 220.05937 72.75313 220.23125Q72.01875 220.40312 71.06563 220.40312Q68.87813 220.40312 68.06563 219.74687Q67.25313 219.09062 67.25313 217.98125Q67.25313 217.84062 67.26875 217.62187L69.95625 217.91875Q70.06563 218.29375 70.26875 218.43437Q70.58125 218.65312 71.05 218.65312Q71.64375 218.65312 71.94063 218.325Q72.2375 218.0125 72.2375 217.21562L72.2375 216.10625Q71.83125 216.59062 71.425 216.80937Q70.78438 217.15312 70.03438 217.15312Q68.58125 217.15312 67.69063 215.8875Q67.05 214.98125 67.05 213.49687Q67.05 211.80937 67.8625 210.91875Q68.69063 210.02812 70.01875 210.02812Q70.8625 210.02812 71.40938 210.325Q71.97188 210.60625 72.44063 211.2625L72.44063 210.18437ZM69.83125 213.71562Q69.83125 214.49687 70.15938 214.8875Q70.4875 215.2625 71.03438 215.2625Q71.56563 215.2625 71.90938 214.87187Q72.26875 214.46562 72.26875 213.66875Q72.26875 212.8875 71.89375 212.46562Q71.53438 212.04375 70.9875 212.04375Q70.45625 212.04375 70.14375 212.43437Q69.83125 212.80937 69.83125 213.71562ZM76.39375 210.18437L78.9875 210.18437L78.9875 211.37187Q79.56563 210.65312 80.15938 210.34062Q80.75313 210.02812 81.6125 210.02812Q82.76875 210.02812 83.40938 210.71562Q84.06563 211.40312 84.06563 212.84062L84.06563 217.45L81.26875 217.45L81.26875 213.45Q81.26875 212.77812 81.01875 212.49687Q80.76875 212.2 80.31563 212.2Q79.8 212.2 79.4875 212.59062Q79.175 212.96562 79.175 213.96562L79.175 217.45L76.39375 217.45L76.39375 210.18437Z" fill-rule="nonzero"/><path fill="#9e9e9e" d="M23.909374 235.575L18.83125 235.575L18.83125 233.29375L23.909374 227.2625L26.33125 227.2625L26.33125 233.41875L27.596874 233.41875L27.596874 235.575L26.33125 235.575L26.33125 237.45L23.909374 237.45L23.909374 235.575ZM23.909374 233.41875L23.909374 230.2625L21.2375 233.41875L23.909374 233.41875ZM28.39375 234.65312L31.378124 234.65312L31.378124 237.45L28.39375 237.45L28.39375 234.65312ZM41.190624 229.68437L38.409374 230.02812Q38.3 229.45 38.05 229.21562Q37.8 228.96562 37.425 228.96562Q36.7375 228.96562 36.3625 229.65312Q36.096874 230.1375 35.95625 231.7625Q36.45625 231.24687 36.9875 231.0125Q37.51875 230.7625 38.20625 230.7625Q39.55 230.7625 40.471874 231.73125Q41.39375 232.68437 41.39375 234.15312Q41.39375 235.1375 40.925 235.96562Q40.45625 236.77812 39.628124 237.2Q38.8 237.62187 37.55 237.62187Q36.05 237.62187 35.128124 237.10625Q34.221874 236.59062 33.675 235.46562Q33.14375 234.34062 33.14375 232.49687Q33.14375 229.77812 34.284374 228.52812Q35.425 227.2625 37.440624 227.2625Q38.64375 227.2625 39.33125 227.54375Q40.034374 227.80937 40.4875 228.34062Q40.940624 228.87187 41.190624 229.68437ZM36.05 234.15312Q36.05 234.96562 36.45625 235.43437Q36.878124 235.8875 37.471874 235.8875Q38.01875 235.8875 38.378124 235.46562Q38.753124 235.04375 38.753124 234.21562Q38.753124 233.37187 38.3625 232.93437Q37.9875 232.48125 37.425 232.48125Q36.846874 232.48125 36.440624 232.91875Q36.05 233.34062 36.05 234.15312ZM50.7375 227.2625L52.175 227.2625L46.39375 237.96562L44.95625 237.96562L50.7375 227.2625ZM42.221874 229.8875Q42.221874 229.18437 42.51875 228.55937Q42.83125 227.93437 43.45625 227.60625Q44.08125 227.2625 44.940624 227.2625Q46.20625 227.2625 46.925 227.98125Q47.64375 228.7 47.64375 229.8875Q47.64375 231.09062 46.925 231.80937Q46.20625 232.52812 44.940624 232.52812Q44.08125 232.52812 43.45625 232.2Q42.83125 231.85625 42.51875 231.23125Q42.221874 230.59062 42.221874 229.8875ZM44.14375 229.90312Q44.14375 230.74687 44.425 231.1375Q44.596874 231.3875 44.940624 231.3875Q45.284374 231.3875 45.45625 231.1375Q45.721874 230.74687 45.721874 229.90312Q45.721874 229.05937 45.45625 228.66875Q45.284374 228.41875 44.940624 228.41875Q44.596874 228.41875 44.425 228.66875Q44.14375 229.05937 44.14375 229.90312ZM49.45625 235.30937Q49.45625 234.60625 49.753124 233.98125Q50.05 233.35625 50.675 233.0125Q51.315624 232.66875 52.159374 232.66875Q53.425 232.66875 54.14375 233.3875Q54.878124 234.10625 54.878124 235.30937Q54.878124 236.5125 54.14375 237.23125Q53.425 237.95 52.159374 237.95Q51.315624 237.95 50.675 237.60625Q50.05 237.2625 49.753124 236.6375Q49.45625 236.0125 49.45625 235.30937ZM51.378124 235.325Q51.378124 236.16875 51.64375 236.55937Q51.815624 236.79375 52.159374 236.79375Q52.503124 236.79375 52.675 236.55937Q52.95625 236.16875 52.95625 235.325Q52.95625 234.48125 52.675 234.09062Q52.503124 233.84062 52.159374 233.84062Q51.815624 233.84062 51.64375 234.09062Q51.378124 234.48125 51.378124 235.325Z" fill-rule="nonzero"/><path stroke="#757575" stroke-width="1.0" stroke-linecap="butt" d="M18.55 222.95L153.73334 222.95L176.4915 262.2043" fill-rule="nonzero"/><path fill="#9e9e9e" d="M178.4915 262.2043C178.4915 261.09976 177.59607 260.2043 176.4915 260.2043C175.38693 260.2043 174.4915 261.09976 174.4915 262.2043C174.4915 263.3089 175.38693 264.2043 176.4915 264.2043C177.59607 264.2043 178.4915 263.3089 178.4915 262.2043" fill-rule="nonzero"/><path fill="#000000" d="M26.253124 250.35625L28.95625 251.16875Q28.690624 252.30937 28.096874 253.075Q27.51875 253.84062 26.64375 254.23125Q25.76875 254.62187 24.425 254.62187Q22.784374 254.62187 21.753124 254.15312Q20.721874 253.68437 19.95625 252.48125Q19.20625 251.27812 19.20625 249.41875Q19.20625 246.93437 20.534374 245.60625Q21.8625 244.2625 24.284374 244.2625Q26.175 244.2625 27.253124 245.02812Q28.346874 245.79375 28.8625 247.37187L26.128124 247.98125Q25.9875 247.52812 25.83125 247.30937Q25.565624 246.95 25.190624 246.7625Q24.815624 246.575 24.346874 246.575Q23.3 246.575 22.7375 247.41875Q22.315624 248.04375 22.315624 249.40312Q22.315624 251.05937 22.815624 251.68437Q23.33125 252.30937 24.2375 252.30937Q25.128124 252.30937 25.58125 251.80937Q26.05 251.30937 26.253124 250.35625ZM30.425 247.18437L33.01875 247.18437L33.01875 248.37187Q33.39375 247.60625 33.8 247.325Q34.20625 247.02812 34.784374 247.02812Q35.409374 247.02812 36.128124 247.40312L35.26875 249.3875Q34.784374 249.18437 34.4875 249.18437Q33.940624 249.18437 33.64375 249.6375Q33.221874 250.27812 33.221874 252.0125L33.221874 254.45L30.425 254.45L30.425 247.18437ZM44.45625 251.5125L38.878124 251.5125Q38.940624 252.18437 39.2375 252.5125Q39.64375 252.98125 40.284374 252.98125Q40.690624 252.98125 41.065624 252.77812Q41.3 252.6375 41.55 252.30937L44.3 252.575Q43.659374 253.66875 42.76875 254.15312Q41.89375 254.62187 40.221874 254.62187Q38.784374 254.62187 37.95625 254.21562Q37.128124 253.79375 36.58125 252.91875Q36.05 252.02812 36.05 250.84062Q36.05 249.1375 37.128124 248.09062Q38.221874 247.02812 40.14375 247.02812Q41.70625 247.02812 42.596874 247.49687Q43.503124 247.96562 43.971874 248.87187Q44.45625 249.7625 44.45625 251.2L44.45625 251.5125ZM41.628124 250.18437Q41.534374 249.37187 41.175 249.02812Q40.83125 248.66875 40.253124 248.66875Q39.596874 248.66875 39.20625 249.2Q38.940624 249.52812 38.878124 250.18437L41.628124 250.18437ZM47.925 249.54375L45.26875 249.2625Q45.425 248.55937 45.70625 248.16875Q45.9875 247.7625 46.51875 247.46562Q46.909374 247.2625 47.565624 247.15312Q48.2375 247.02812 49.01875 247.02812Q50.26875 247.02812 51.01875 247.16875Q51.784374 247.30937 52.3 247.74687Q52.64375 248.05937 52.846874 248.62187Q53.065624 249.18437 53.065624 249.7L53.065624 252.90312Q53.065624 253.41875 53.128124 253.71562Q53.190624 253.99687 53.409374 254.45L50.8 254.45Q50.64375 254.16875 50.596874 254.02812Q50.55 253.87187 50.503124 253.55937Q49.95625 254.09062 49.409374 254.30937Q48.675 254.62187 47.690624 254.62187Q46.39375 254.62187 45.721874 254.0125Q45.05 253.40312 45.05 252.52812Q45.05 251.7 45.534374 251.16875Q46.01875 250.6375 47.33125 250.37187Q48.89375 250.05937 49.346874 249.93437Q49.815624 249.80937 50.346874 249.60625Q50.346874 249.09062 50.128124 248.8875Q49.909374 248.68437 49.378124 248.68437Q48.70625 248.68437 48.3625 248.90312Q48.096874 249.075 47.925 249.54375ZM50.346874 250.99687Q49.76875 251.21562 49.14375 251.37187Q48.3 251.59062 48.065624 251.80937Q47.83125 252.04375 47.83125 252.325Q47.83125 252.65312 48.065624 252.87187Q48.3 253.075 48.7375 253.075Q49.20625 253.075 49.596874 252.85625Q50.003124 252.62187 50.175 252.29375Q50.346874 251.96562 50.346874 251.45L50.346874 250.99687ZM57.753124 244.43437L57.753124 247.18437L59.284374 247.18437L59.284374 249.21562L57.753124 249.21562L57.753124 251.79375Q57.753124 252.2625 57.83125 252.41875Q57.971874 252.6375 58.315624 252.6375Q58.628124 252.6375 59.175 252.46562L59.378124 254.3875Q58.346874 254.62187 57.45625 254.62187Q56.409374 254.62187 55.909374 254.35625Q55.425 254.075 55.190624 253.54375Q54.95625 252.99687 54.95625 251.77812L54.95625 249.21562L53.940624 249.21562L53.940624 247.18437L54.95625 247.18437L54.95625 245.85625L57.753124 244.43437ZM60.4875 244.43437L63.26875 244.43437L63.26875 246.325L60.4875 246.325L60.4875 244.43437ZM60.4875 247.18437L63.26875 247.18437L63.26875 254.45L60.4875 254.45L60.4875 247.18437ZM64.56563 247.18437L67.45625 247.18437L68.87813 251.79375L70.33125 247.18437L73.14375 247.18437L70.05 254.45L67.58125 254.45L64.56563 247.18437ZM82.45625 251.5125L76.87813 251.5125Q76.94063 252.18437 77.2375 252.5125Q77.64375 252.98125 78.28438 252.98125Q78.69063 252.98125 79.06563 252.77812Q79.3 252.6375 79.55 252.30937L82.3 252.575Q81.65938 253.66875 80.76875 254.15312Q79.89375 254.62187 78.22188 254.62187Q76.78438 254.62187 75.95625 254.21562Q75.12813 253.79375 74.58125 252.91875Q74.05 252.02812 74.05 250.84062Q74.05 249.1375 75.12813 248.09062Q76.22188 247.02812 78.14375 247.02812Q79.70625 247.02812 80.59688 247.49687Q81.50313 247.96562 81.97188 248.87187Q82.45625 249.7625 82.45625 251.2L82.45625 251.5125ZM79.62813 250.18437Q79.53438 249.37187 79.175 249.02812Q78.83125 248.66875 78.25313 248.66875Q77.59688 248.66875 77.20625 249.2Q76.94063 249.52812 76.87813 250.18437L79.62813 250.18437ZM95.25313 250.35625L97.95625 251.16875Q97.69063 252.30937 97.09688 253.075Q96.51875 253.84062 95.64375 254.23125Q94.76875 254.62187 93.425 254.62187Q91.78438 254.62187 90.75313 254.15312Q89.72188 253.68437 88.95625 252.48125Q88.20625 251.27812 88.20625 249.41875Q88.20625 246.93437 89.53438 245.60625Q90.8625 244.2625 93.28438 244.2625Q95.175 244.2625 96.25313 245.02812Q97.34688 245.79375 97.8625 247.37187L95.12813 247.98125Q94.9875 247.52812 94.83125 247.30937Q94.56563 246.95 94.19063 246.7625Q93.81563 246.575 93.34688 246.575Q92.3 246.575 91.7375 247.41875Q91.31563 248.04375 91.31563 249.40312Q91.31563 251.05937 91.81563 251.68437Q92.33125 252.30937 93.2375 252.30937Q94.12813 252.30937 94.58125 251.80937Q95.05 251.30937 95.25313 250.35625ZM99.4875 244.43437L102.26875 244.43437L102.26875 254.45L99.4875 254.45L99.4875 244.43437ZM104.05 250.84062Q104.05 249.18437 105.15938 248.10625Q106.28438 247.02812 108.20625 247.02812Q110.37813 247.02812 111.4875 248.29375Q112.39375 249.30937 112.39375 250.79375Q112.39375 252.48125 111.28438 253.55937Q110.175 254.62187 108.20625 254.62187Q106.45625 254.62187 105.37813 253.73125Q104.05 252.62187 104.05 250.84062ZM106.83125 250.84062Q106.83125 251.80937 107.22188 252.27812Q107.62813 252.73125 108.22188 252.73125Q108.81563 252.73125 109.20625 252.27812Q109.59688 251.825 109.59688 250.80937Q109.59688 249.85625 109.20625 249.40312Q108.81563 248.93437 108.2375 248.93437Q107.62813 248.93437 107.22188 249.40312Q106.83125 249.87187 106.83125 250.84062ZM121.03438 254.45L118.44063 254.45L118.44063 253.27812Q117.8625 253.99687 117.26875 254.30937Q116.675 254.62187 115.81563 254.62187Q114.675 254.62187 114.01875 253.93437Q113.3625 253.24687 113.3625 251.80937L113.3625 247.18437L116.15938 247.18437L116.15938 251.18437Q116.15938 251.87187 116.40938 252.15312Q116.65938 252.43437 117.12813 252.43437Q117.62813 252.43437 117.94063 252.05937Q118.25313 251.66875 118.25313 250.68437L118.25313 247.18437L121.03438 247.18437L121.03438 254.45ZM130.03438 244.43437L130.03438 254.45L127.425 254.45L127.425 253.37187Q126.87813 254.05937 126.425 254.29375Q125.83125 254.62187 125.09688 254.62187Q123.6125 254.62187 122.83125 253.49687Q122.05 252.35625 122.05 250.74687Q122.05 248.93437 122.90938 247.98125Q123.76875 247.02812 125.1125 247.02812Q125.75313 247.02812 126.28438 247.24687Q126.81563 247.46562 127.22188 247.90312L127.22188 244.43437L130.03438 244.43437ZM127.2375 250.79375Q127.2375 249.95 126.87813 249.52812Q126.51875 249.10625 125.97188 249.10625Q125.4875 249.10625 125.15938 249.5125Q124.83125 249.90312 124.83125 250.85625Q124.83125 251.74687 125.15938 252.16875Q125.50313 252.575 126.00313 252.575Q126.53438 252.575 126.87813 252.16875Q127.2375 251.74687 127.2375 250.79375Z" fill-rule="nonzero"/><path fill="#9e9e9e" d="M20.253124 264.4344L26.8625 264.4344L26.8625 266.65314L22.378124 266.65314L22.14375 268.15314Q22.6125 267.9344 23.065624 267.825Q23.51875 267.71564 23.971874 267.71564Q25.471874 267.71564 26.409374 268.6219Q27.346874 269.52814 27.346874 270.91876Q27.346874 271.8875 26.8625 272.79376Q26.378124 273.6844 25.4875 274.15314Q24.6125 274.6219 23.221874 274.6219Q22.2375 274.6219 21.51875 274.4344Q20.815624 274.2469 20.315624 273.8719Q19.83125 273.4969 19.51875 273.02814Q19.20625 272.5594 19.003124 271.85626L21.83125 271.54376Q21.925 272.21564 22.3 272.575Q22.675 272.91876 23.20625 272.91876Q23.784374 272.91876 24.159374 272.48126Q24.534374 272.04376 24.534374 271.16876Q24.534374 270.27814 24.14375 269.85626Q23.76875 269.4344 23.14375 269.4344Q22.7375 269.4344 22.3625 269.6375Q22.08125 269.77814 21.7375 270.15314L19.378124 269.8094L20.253124 264.4344ZM28.39375 271.65314L31.378124 271.65314L31.378124 274.45L28.39375 274.45L28.39375 271.65314ZM39.440624 264.2625L39.440624 274.45L36.6125 274.45L36.6125 267.77814Q35.940624 268.29376 35.3 268.6219Q34.659374 268.9344 33.690624 269.23126L33.690624 266.95Q35.1125 266.48126 35.89375 265.84064Q36.690624 265.2 37.128124 264.2625L39.440624 264.2625ZM50.7375 264.2625L52.175 264.2625L46.39375 274.96564L44.95625 274.96564L50.7375 264.2625ZM42.221874 266.8875Q42.221874 266.1844 42.51875 265.5594Q42.83125 264.9344 43.45625 264.60626Q44.08125 264.2625 44.940624 264.2625Q46.20625 264.2625 46.925 264.98126Q47.64375 265.7 47.64375 266.8875Q47.64375 268.09064 46.925 268.8094Q46.20625 269.52814 44.940624 269.52814Q44.08125 269.52814 43.45625 269.2Q42.83125 268.85626 42.51875 268.23126Q42.221874 267.59064 42.221874 266.8875ZM44.14375 266.90314Q44.14375 267.7469 44.425 268.1375Q44.596874 268.3875 44.940624 268.3875Q45.284374 268.3875 45.45625 268.1375Q45.721874 267.7469 45.721874 266.90314Q45.721874 266.0594 45.45625 265.66876Q45.284374 265.41876 44.940624 265.41876Q44.596874 265.41876 44.425 265.66876Q44.14375 266.0594 44.14375 266.90314ZM49.45625 272.3094Q49.45625 271.60626 49.753124 270.98126Q50.05 270.35626 50.675 270.0125Q51.315624 269.66876 52.159374 269.66876Q53.425 269.66876 54.14375 270.3875Q54.878124 271.10626 54.878124 272.3094Q54.878124 273.5125 54.14375 274.23126Q53.425 274.95 52.159374 274.95Q51.315624 274.95 50.675 274.60626Q50.05 274.2625 49.753124 273.6375Q49.45625 273.0125 49.45625 272.3094ZM51.378124 272.325Q51.378124 273.16876 51.64375 273.5594Q51.815624 273.79376 52.159374 273.79376Q52.503124 273.79376 52.675 273.5594Q52.95625 273.16876 52.95625 272.325Q52.95625 271.48126 52.675 271.09064Q52.503124 270.84064 52.159374 270.84064Q51.815624 270.84064 51.64375 271.09064Q51.378124 271.48126 51.378124 272.325Z" fill-rule="nonzero"/><path stroke="#757575" stroke-width="1.0" stroke-linecap="butt" d="M18.55 259.95L153.73334 259.95L197.17883 296.94333" fill-rule="nonzero"/><path fill="#9e9e9e" d="M199.17883 296.94333C199.17883 295.83878 198.2834 294.94333 197.17883 294.94333C196.07426 294.94333 195.17883 295.83878 195.17883 296.94333C195.17883 298.0479 196.07426 298.94333 197.17883 298.94333C198.2834 298.94333 199.17883 298.0479 199.17883 296.94333" fill-rule="nonzero"/><path fill="#000000" d="M19.565624 281.4344L24.70625 281.4344Q26.39375 281.4344 27.221874 282.23126Q28.065624 283.02814 28.065624 284.4969Q28.065624 286.02814 27.14375 286.8875Q26.2375 287.73126 24.3625 287.73126L22.675 287.73126L22.675 291.45L19.565624 291.45L19.565624 281.4344ZM22.675 285.7L23.425 285.7Q24.33125 285.7 24.690624 285.3875Q25.05 285.075 25.05 284.59064Q25.05 284.1219 24.7375 283.79376Q24.425 283.46564 23.55 283.46564L22.675 283.46564L22.675 285.7ZM29.425 284.1844L32.01875 284.1844L32.01875 285.3719Q32.39375 284.60626 32.8 284.325Q33.20625 284.02814 33.784374 284.02814Q34.409374 284.02814 35.128124 284.40314L34.26875 286.3875Q33.784374 286.1844 33.4875 286.1844Q32.940624 286.1844 32.64375 286.6375Q32.221874 287.27814 32.221874 289.0125L32.221874 291.45L29.425 291.45L29.425 284.1844ZM43.45625 288.5125L37.878124 288.5125Q37.940624 289.1844 38.2375 289.5125Q38.64375 289.98126 39.284374 289.98126Q39.690624 289.98126 40.065624 289.77814Q40.3 289.6375 40.55 289.3094L43.3 289.575Q42.659374 290.66876 41.76875 291.15314Q40.89375 291.6219 39.221874 291.6219Q37.784374 291.6219 36.95625 291.21564Q36.128124 290.79376 35.58125 289.91876Q35.05 289.02814 35.05 287.84064Q35.05 286.1375 36.128124 285.09064Q37.221874 284.02814 39.14375 284.02814Q40.70625 284.02814 41.596874 284.4969Q42.503124 284.96564 42.971874 285.8719Q43.45625 286.7625 43.45625 288.2L43.45625 288.5125ZM40.628124 287.1844Q40.534374 286.3719 40.175 286.02814Q39.83125 285.66876 39.253124 285.66876Q38.596874 285.66876 38.20625 286.2Q37.940624 286.52814 37.878124 287.1844L40.628124 287.1844ZM44.409374 284.1844L47.003124 284.1844L47.003124 285.2469Q47.565624 284.59064 48.128124 284.3094Q48.70625 284.02814 49.51875 284.02814Q50.39375 284.02814 50.89375 284.34064Q51.39375 284.6375 51.721874 285.2469Q52.378124 284.54376 52.909374 284.29376Q53.45625 284.02814 54.253124 284.02814Q55.425 284.02814 56.08125 284.73126Q56.7375 285.41876 56.7375 286.8875L56.7375 291.45L53.940624 291.45L53.940624 287.3094Q53.940624 286.825 53.753124 286.575Q53.471874 286.2 53.05 286.2Q52.565624 286.2 52.253124 286.5594Q51.95625 286.91876 51.95625 287.7L51.95625 291.45L49.175 291.45L49.175 287.45Q49.175 286.96564 49.1125 286.79376Q49.01875 286.52814 48.8 286.3719Q48.58125 286.2 48.3 286.2Q47.815624 286.2 47.503124 286.5594Q47.20625 286.91876 47.20625 287.7469L47.20625 291.45L44.409374 291.45L44.409374 284.1844ZM58.4875 281.4344L61.26875 281.4344L61.26875 283.325L58.4875 283.325L58.4875 281.4344ZM58.4875 284.1844L61.26875 284.1844L61.26875 291.45L58.4875 291.45L58.4875 284.1844ZM71.45625 288.5125L65.87813 288.5125Q65.94063 289.1844 66.2375 289.5125Q66.64375 289.98126 67.28438 289.98126Q67.69063 289.98126 68.06563 289.77814Q68.3 289.6375 68.55 289.3094L71.3 289.575Q70.65938 290.66876 69.76875 291.15314Q68.89375 291.6219 67.22188 291.6219Q65.78438 291.6219 64.95625 291.21564Q64.12813 290.79376 63.58125 289.91876Q63.05 289.02814 63.05 287.84064Q63.05 286.1375 64.12813 285.09064Q65.22188 284.02814 67.14375 284.02814Q68.70625 284.02814 69.59688 284.4969Q70.50313 284.96564 70.97188 285.8719Q71.45625 286.7625 71.45625 288.2L71.45625 288.5125ZM68.62813 287.1844Q68.53438 286.3719 68.175 286.02814Q67.83125 285.66876 67.25313 285.66876Q66.59688 285.66876 66.20625 286.2Q65.94063 286.52814 65.87813 287.1844L68.62813 287.1844ZM72.425 284.1844L75.01875 284.1844L75.01875 285.3719Q75.39375 284.60626 75.8 284.325Q76.20625 284.02814 76.78438 284.02814Q77.40938 284.02814 78.12813 284.40314L77.26875 286.3875Q76.78438 286.1844 76.4875 286.1844Q75.94063 286.1844 75.64375 286.6375Q75.22188 287.27814 75.22188 289.0125L75.22188 291.45L72.425 291.45L72.425 284.1844ZM86.45625 288.5125L80.87813 288.5125Q80.94063 289.1844 81.2375 289.5125Q81.64375 289.98126 82.28438 289.98126Q82.69063 289.98126 83.06563 289.77814Q83.3 289.6375 83.55 289.3094L86.3 289.575Q85.65938 290.66876 84.76875 291.15314Q83.89375 291.6219 82.22188 291.6219Q80.78438 291.6219 79.95625 291.21564Q79.12813 290.79376 78.58125 289.91876Q78.05 289.02814 78.05 287.84064Q78.05 286.1375 79.12813 285.09064Q80.22188 284.02814 82.14375 284.02814Q83.70625 284.02814 84.59688 284.4969Q85.50313 284.96564 85.97188 285.8719Q86.45625 286.7625 86.45625 288.2L86.45625 288.5125ZM83.62813 287.1844Q83.53438 286.3719 83.175 286.02814Q82.83125 285.66876 82.25313 285.66876Q81.59688 285.66876 81.20625 286.2Q80.94063 286.52814 80.87813 287.1844L83.62813 287.1844ZM92.56563 281.4344L97.70625 281.4344Q99.39375 281.4344 100.22188 282.23126Q101.06563 283.02814 101.06563 284.4969Q101.06563 286.02814 100.14375 286.8875Q99.2375 287.73126 97.3625 287.73126L95.675 287.73126L95.675 291.45L92.56563 291.45L92.56563 281.4344ZM95.675 285.7L96.425 285.7Q97.33125 285.7 97.69063 285.3875Q98.05 285.075 98.05 284.59064Q98.05 284.1219 97.7375 283.79376Q97.425 283.46564 96.55 283.46564L95.675 283.46564L95.675 285.7ZM102.425 284.1844L105.01875 284.1844L105.01875 285.3719Q105.39375 284.60626 105.8 284.325Q106.20625 284.02814 106.78438 284.02814Q107.40938 284.02814 108.12813 284.40314L107.26875 286.3875Q106.78438 286.1844 106.4875 286.1844Q105.94063 286.1844 105.64375 286.6375Q105.22188 287.27814 105.22188 289.0125L105.22188 291.45L102.425 291.45L102.425 284.1844ZM108.05 287.84064Q108.05 286.1844 109.15938 285.10626Q110.28438 284.02814 112.20625 284.02814Q114.37813 284.02814 115.4875 285.29376Q116.39375 286.3094 116.39375 287.79376Q116.39375 289.48126 115.28438 290.5594Q114.175 291.6219 112.20625 291.6219Q110.45625 291.6219 109.37813 290.73126Q108.05 289.6219 108.05 287.84064ZM110.83125 287.84064Q110.83125 288.8094 111.22188 289.27814Q111.62813 289.73126 112.22188 289.73126Q112.81563 289.73126 113.20625 289.27814Q113.59688 288.825 113.59688 287.8094Q113.59688 286.85626 113.20625 286.40314Q112.81563 285.9344 112.2375 285.9344Q111.62813 285.9344 111.22188 286.40314Q110.83125 286.8719 110.83125 287.84064Z" fill-rule="nonzero"/><path fill="#9e9e9e" d="M19.175 301.4344L27.3 301.4344L27.3 303.3094Q26.2375 304.2625 25.534374 305.3719Q24.675 306.73126 24.175 308.3875Q23.76875 309.6844 23.64375 311.45L20.8625 311.45Q21.190624 308.9969 21.89375 307.34064Q22.596874 305.66876 24.128124 303.77814L19.175 303.77814L19.175 301.4344ZM28.39375 308.65314L31.378124 308.65314L31.378124 311.45L28.39375 311.45L28.39375 308.65314ZM41.26875 311.45L32.925 311.45Q33.065624 310.21564 33.784374 309.1219Q34.51875 308.02814 36.51875 306.54376Q37.753124 305.6375 38.08125 305.16876Q38.425 304.7 38.425 304.27814Q38.425 303.8094 38.08125 303.4969Q37.753124 303.16876 37.2375 303.16876Q36.70625 303.16876 36.3625 303.5125Q36.034374 303.84064 35.909374 304.6844L33.128124 304.45Q33.284374 303.27814 33.721874 302.6219Q34.159374 301.96564 34.95625 301.6219Q35.753124 301.2625 37.159374 301.2625Q38.628124 301.2625 39.440624 301.60626Q40.26875 301.9344 40.7375 302.6219Q41.20625 303.3094 41.20625 304.16876Q41.20625 305.09064 40.659374 305.9344Q40.128124 306.7625 38.721874 307.7625Q37.878124 308.34064 37.596874 308.575Q37.315624 308.8094 36.925 309.1844L41.26875 309.1844L41.26875 311.45ZM50.7375 301.2625L52.175 301.2625L46.39375 311.96564L44.95625 311.96564L50.7375 301.2625ZM42.221874 303.8875Q42.221874 303.1844 42.51875 302.5594Q42.83125 301.9344 43.45625 301.60626Q44.08125 301.2625 44.940624 301.2625Q46.20625 301.2625 46.925 301.98126Q47.64375 302.7 47.64375 303.8875Q47.64375 305.09064 46.925 305.8094Q46.20625 306.52814 44.940624 306.52814Q44.08125 306.52814 43.45625 306.2Q42.83125 305.85626 42.51875 305.23126Q42.221874 304.59064 42.221874 303.8875ZM44.14375 303.90314Q44.14375 304.7469 44.425 305.1375Q44.596874 305.3875 44.940624 305.3875Q45.284374 305.3875 45.45625 305.1375Q45.721874 304.7469 45.721874 303.90314Q45.721874 303.0594 45.45625 302.66876Q45.284374 302.41876 44.940624 302.41876Q44.596874 302.41876 44.425 302.66876Q44.14375 303.0594 44.14375 303.90314ZM49.45625 309.3094Q49.45625 308.60626 49.753124 307.98126Q50.05 307.35626 50.675 307.0125Q51.315624 306.66876 52.159374 306.66876Q53.425 306.66876 54.14375 307.3875Q54.878124 308.10626 54.878124 309.3094Q54.878124 310.5125 54.14375 311.23126Q53.425 311.95 52.159374 311.95Q51.315624 311.95 50.675 311.60626Q50.05 311.2625 49.753124 310.6375Q49.45625 310.0125 49.45625 309.3094ZM51.378124 309.325Q51.378124 310.16876 51.64375 310.5594Q51.815624 310.79376 52.159374 310.79376Q52.503124 310.79376 52.675 310.5594Q52.95625 310.16876 52.95625 309.325Q52.95625 308.48126 52.675 308.09064Q52.503124 307.84064 52.159374 307.84064Q51.815624 307.84064 51.64375 308.09064Q51.378124 308.48126 51.378124 309.325Z" fill-rule="nonzero"/><path stroke="#757575" stroke-width="1.0" stroke-linecap="butt" d="M18.55 296.95L153.73334 296.95L236.90355 329.5515" fill-rule="nonzero"/><path fill="#9e9e9e" d="M238.90355 329.5515C238.90355 328.44693 238.00812 327.5515 236.90355 327.5515C235.79898 327.5515 234.90355 328.44693 234.90355 329.5515C234.90355 330.65607 235.79898 331.5515 236.90355 331.5515C238.00812 331.5515 238.90355 330.65607 238.90355 329.5515" fill-rule="nonzero"/><path fill="#000000" d="M19.534374 318.4344L23.6125 318.4344L25.190624 324.52814L26.753124 318.4344L30.815624 318.4344L30.815624 328.45L28.284374 328.45L28.284374 320.8094L26.315624 328.45L24.034374 328.45L22.08125 320.8094L22.08125 328.45L19.534374 328.45L19.534374 318.4344ZM38.7375 326.79376L35.221874 326.79376L34.721874 328.45L31.565624 328.45L35.33125 318.4344L38.70625 318.4344L42.471874 328.45L39.2375 328.45L38.7375 326.79376ZM38.096874 324.6219L36.9875 321.02814L35.878124 324.6219L38.096874 324.6219ZM42.878124 318.4344L46.3 318.4344L48.08125 321.5125L49.8 318.4344L53.175 318.4344L50.05 323.27814L53.471874 328.45L49.9875 328.45L48.01875 325.23126L46.034374 328.45L42.565624 328.45L46.034374 323.23126L42.878124 318.4344ZM54.190624 323.45Q54.190624 320.9969 55.55 319.6375Q56.925 318.2625 59.3625 318.2625Q61.8625 318.2625 63.20625 319.60626Q64.56563 320.95 64.56563 323.35626Q64.56563 325.1219 63.971874 326.2469Q63.39375 327.3719 62.26875 327.9969Q61.159374 328.6219 59.4875 328.6219Q57.784374 328.6219 56.675 328.09064Q55.565624 327.54376 54.878124 326.3719Q54.190624 325.2 54.190624 323.45ZM57.284374 323.46564Q57.284374 324.98126 57.846874 325.65314Q58.409374 326.3094 59.378124 326.3094Q60.378124 326.3094 60.925 325.65314Q61.471874 324.9969 61.471874 323.325Q61.471874 321.90314 60.89375 321.2625Q60.33125 320.60626 59.346874 320.60626Q58.425 320.60626 57.846874 321.27814Q57.284374 321.9344 57.284374 323.46564ZM66.59688 318.4344L69.4875 318.4344L73.26875 323.96564L73.26875 318.4344L76.175 318.4344L76.175 328.45L73.26875 328.45L69.50313 322.95L69.50313 328.45L66.59688 328.45L66.59688 318.4344ZM83.03438 325.1375L85.9875 324.95Q86.08125 325.66876 86.37813 326.04376Q86.84688 326.65314 87.7375 326.65314Q88.40938 326.65314 88.75313 326.34064Q89.1125 326.02814 89.1125 325.6219Q89.1125 325.23126 88.78438 324.91876Q88.44063 324.6219 87.19063 324.34064Q85.15938 323.8875 84.28438 323.1219Q83.40938 322.3719 83.40938 321.1844Q83.40938 320.41876 83.84688 319.73126Q84.3 319.04376 85.20625 318.65314Q86.1125 318.2625 87.675 318.2625Q89.59688 318.2625 90.59688 318.98126Q91.6125 319.6844 91.8 321.2469L88.87813 321.41876Q88.76875 320.73126 88.39375 320.4344Q88.01875 320.1219 87.3625 320.1219Q86.81563 320.1219 86.53438 320.35626Q86.26875 320.575 86.26875 320.90314Q86.26875 321.15314 86.50313 321.34064Q86.72188 321.54376 87.53438 321.71564Q89.56563 322.15314 90.44063 322.60626Q91.33125 323.04376 91.72188 323.71564Q92.12813 324.3719 92.12813 325.1844Q92.12813 326.15314 91.59688 326.96564Q91.06563 327.77814 90.09688 328.2Q89.14375 328.6219 87.69063 328.6219Q85.12813 328.6219 84.14375 327.6375Q83.15938 326.65314 83.03438 325.1375ZM100.09688 318.4344L103.19063 318.4344L103.19063 324.40314Q103.19063 325.29376 102.90938 326.09064Q102.62813 326.8719 102.03438 327.46564Q101.45625 328.0594 100.8 328.29376Q99.89375 328.6219 98.62813 328.6219Q97.90938 328.6219 97.03438 328.5125Q96.175 328.41876 95.59688 328.1219Q95.01875 327.8094 94.53438 327.2625Q94.05 326.7 93.8625 326.09064Q93.58125 325.1375 93.58125 324.40314L93.58125 318.4344L96.675 318.4344L96.675 324.54376Q96.675 325.3719 97.12813 325.84064Q97.58125 326.29376 98.39375 326.29376Q99.19063 326.29376 99.64375 325.84064Q100.09688 325.3875 100.09688 324.54376L100.09688 318.4344ZM105.70625 318.4344L108.8 318.4344L108.8 328.45L105.70625 328.45L105.70625 318.4344ZM109.87813 318.4344L119.28438 318.4344L119.28438 320.90314L116.12813 320.90314L116.12813 328.45L113.03438 328.45L113.03438 320.90314L109.87813 320.90314L109.87813 318.4344ZM120.56563 318.4344L128.8625 318.4344L128.8625 320.575L123.675 320.575L123.675 322.15314L128.4875 322.15314L128.4875 324.2L123.675 324.2L123.675 326.1844L129.01875 326.1844L129.01875 328.45L120.56563 328.45L120.56563 318.4344Z" fill-rule="nonzero"/><path fill="#9e9e9e" d="M19.128124 343.40314Q19.128124 340.54376 20.14375 339.40314Q21.175 338.2625 23.284374 338.2625Q24.3 338.2625 24.940624 338.5125Q25.596874 338.7625 26.003124 339.16876Q26.425 339.5594 26.659374 339.9969Q26.89375 340.4344 27.034374 341.02814Q27.315624 342.15314 27.315624 343.35626Q27.315624 346.09064 26.39375 347.35626Q25.471874 348.6219 23.20625 348.6219Q21.940624 348.6219 21.159374 348.21564Q20.39375 347.8094 19.89375 347.02814Q19.534374 346.48126 19.33125 345.52814Q19.128124 344.5594 19.128124 343.40314ZM21.89375 343.40314Q21.89375 345.325 22.221874 346.02814Q22.565624 346.71564 23.20625 346.71564Q23.628124 346.71564 23.940624 346.41876Q24.253124 346.1219 24.39375 345.48126Q24.55 344.84064 24.55 343.48126Q24.55 341.48126 24.20625 340.79376Q23.8625 340.10626 23.190624 340.10626Q22.503124 340.10626 22.190624 340.8094Q21.89375 341.5125 21.89375 343.40314ZM28.39375 345.65314L31.378124 345.65314L31.378124 348.45L28.39375 348.45L28.39375 345.65314ZM37.909374 346.575L32.83125 346.575L32.83125 344.29376L37.909374 338.2625L40.33125 338.2625L40.33125 344.41876L41.596874 344.41876L41.596874 346.575L40.33125 346.575L40.33125 348.45L37.909374 348.45L37.909374 346.575ZM37.909374 344.41876L37.909374 341.2625L35.2375 344.41876L37.909374 344.41876ZM50.7375 338.2625L52.175 338.2625L46.39375 348.96564L44.95625 348.96564L50.7375 338.2625ZM42.221874 340.8875Q42.221874 340.1844 42.51875 339.5594Q42.83125 338.9344 43.45625 338.60626Q44.08125 338.2625 44.940624 338.2625Q46.20625 338.2625 46.925 338.98126Q47.64375 339.7 47.64375 340.8875Q47.64375 342.09064 46.925 342.8094Q46.20625 343.52814 44.940624 343.52814Q44.08125 343.52814 43.45625 343.2Q42.83125 342.85626 42.51875 342.23126Q42.221874 341.59064 42.221874 340.8875ZM44.14375 340.90314Q44.14375 341.7469 44.425 342.1375Q44.596874 342.3875 44.940624 342.3875Q45.284374 342.3875 45.45625 342.1375Q45.721874 341.7469 45.721874 340.90314Q45.721874 340.0594 45.45625 339.66876Q45.284374 339.41876 44.940624 339.41876Q44.596874 339.41876 44.425 339.66876Q44.14375 340.0594 44.14375 340.90314ZM49.45625 346.3094Q49.45625 345.60626 49.753124 344.98126Q50.05 344.35626 50.675 344.0125Q51.315624 343.66876 52.159374 343.66876Q53.425 343.66876 54.14375 344.3875Q54.878124 345.10626 54.878124 346.3094Q54.878124 347.5125 54.14375 348.23126Q53.425 348.95 52.159374 348.95Q51.315624 348.95 50.675 348.60626Q50.05 348.2625 49.753124 347.6375Q49.45625 347.0125 49.45625 346.3094ZM51.378124 346.325Q51.378124 347.16876 51.64375 347.5594Q51.815624 347.79376 52.159374 347.79376Q52.503124 347.79376 52.675 347.5594Q52.95625 347.16876 52.95625 346.325Q52.95625 345.48126 52.675 345.09064Q52.503124 344.84064 52.159374 344.84064Q51.815624 344.84064 51.64375 345.09064Q51.378124 345.48126 51.378124 346.325Z" fill-rule="nonzero"/><path stroke="#757575" stroke-width="1.0" stroke-linecap="butt" d="M18.55 333.95L153.73334 333.95L266.536 341.16632" fill-rule="nonzero"/><path fill="#9e9e9e" d="M268.536 341.16632C268.536 340.06177 267.64056 339.16632 266.536 339.16632C265.43143 339.16632 264.536 340.06177 264.536 341.16632C264.536 342.2709 265.43143 343.16632 266.536 343.16632C267.64056 343.16632 268.536 342.2709 268.536 341.16632" fill-rule="nonzero"/><path fill="#000000" d="M542.4344 212.74214L546.5125 212.74214L548.09064 218.83589L549.65314 212.74214L553.71564 212.74214L553.71564 222.75777L551.1844 222.75777L551.1844 215.11714L549.21564 222.75777L546.9344 222.75777L544.98126 215.11714L544.98126 222.75777L542.4344 222.75777L542.4344 212.74214ZM557.825 217.85152L555.16876 217.57027Q555.325 216.86714 555.60626 216.47652Q555.8875 216.07027 556.41876 215.77339Q556.8094 215.57027 557.46564 215.46089Q558.1375 215.33589 558.91876 215.33589Q560.16876 215.33589 560.91876 215.47652Q561.6844 215.61714 562.2 216.05464Q562.54376 216.36714 562.7469 216.92964Q562.96564 217.49214 562.96564 218.00777L562.96564 221.21089Q562.96564 221.72652 563.02814 222.02339Q563.09064 222.30464 563.3094 222.75777L560.7 222.75777Q560.54376 222.47652 560.4969 222.33589Q560.45 222.17964 560.40314 221.86714Q559.85626 222.39839 559.3094 222.61714Q558.575 222.92964 557.59064 222.92964Q556.29376 222.92964 555.6219 222.32027Q554.95 221.71089 554.95 220.83589Q554.95 220.00777 555.4344 219.47652Q555.91876 218.94527 557.23126 218.67964Q558.79376 218.36714 559.2469 218.24214Q559.71564 218.11714 560.2469 217.91402Q560.2469 217.39839 560.02814 217.19527Q559.8094 216.99214 559.27814 216.99214Q558.60626 216.99214 558.2625 217.21089Q557.9969 217.38277 557.825 217.85152ZM560.2469 219.30464Q559.66876 219.52339 559.04376 219.67964Q558.2 219.89839 557.96564 220.11714Q557.73126 220.35152 557.73126 220.63277Q557.73126 220.96089 557.96564 221.17964Q558.2 221.38277 558.6375 221.38277Q559.10626 221.38277 559.4969 221.16402Q559.90314 220.92964 560.075 220.60152Q560.2469 220.27339 560.2469 219.75777L560.2469 219.30464ZM563.48126 215.49214L566.41876 215.49214L567.91876 220.33589L569.3094 215.49214L572.04376 215.49214L569.16876 223.25777Q568.6844 224.58589 568.16876 225.05464Q567.45 225.71089 565.96564 225.71089Q565.35626 225.71089 564.10626 225.53902L563.8875 223.60152Q564.48126 223.78902 565.21564 223.78902Q565.71564 223.78902 566.0125 223.55464Q566.325 223.33589 566.52814 222.75777L563.48126 215.49214ZM575.825 217.85152L573.16876 217.57027Q573.325 216.86714 573.60626 216.47652Q573.8875 216.07027 574.41876 215.77339Q574.8094 215.57027 575.46564 215.46089Q576.1375 215.33589 576.91876 215.33589Q578.16876 215.33589 578.91876 215.47652Q579.6844 215.61714 580.2 216.05464Q580.54376 216.36714 580.7469 216.92964Q580.96564 217.49214 580.96564 218.00777L580.96564 221.21089Q580.96564 221.72652 581.02814 222.02339Q581.09064 222.30464 581.3094 222.75777L578.7 222.75777Q578.54376 222.47652 578.4969 222.33589Q578.45 222.17964 578.40314 221.86714Q577.85626 222.39839 577.3094 222.61714Q576.575 222.92964 575.59064 222.92964Q574.29376 222.92964 573.6219 222.32027Q572.95 221.71089 572.95 220.83589Q572.95 220.00777 573.4344 219.47652Q573.91876 218.94527 575.23126 218.67964Q576.79376 218.36714 577.2469 218.24214Q577.71564 218.11714 578.2469 217.91402Q578.2469 217.39839 578.02814 217.19527Q577.8094 216.99214 577.27814 216.99214Q576.60626 216.99214 576.2625 217.21089Q575.9969 217.38277 575.825 217.85152ZM578.2469 219.30464Q577.66876 219.52339 577.04376 219.67964Q576.2 219.89839 575.96564 220.11714Q575.73126 220.35152 575.73126 220.63277Q575.73126 220.96089 575.96564 221.17964Q576.2 221.38277 576.6375 221.38277Q577.10626 221.38277 577.4969 221.16402Q577.90314 220.92964 578.075 220.60152Q578.2469 220.27339 578.2469 219.75777L578.2469 219.30464Z" fill-rule="nonzero"/><path fill="#9e9e9e" d="M537.15314 232.74214L543.7625 232.74214L543.7625 234.96089L539.27814 234.96089L539.04376 236.46089Q539.5125 236.24214 539.96564 236.13277Q540.41876 236.02339 540.8719 236.02339Q542.3719 236.02339 543.3094 236.92964Q544.2469 237.83589 544.2469 239.22652Q544.2469 240.19527 543.7625 241.10152Q543.27814 241.99214 542.3875 242.46089Q541.5125 242.92964 540.1219 242.92964Q539.1375 242.92964 538.41876 242.74214Q537.71564 242.55464 537.21564 242.17964Q536.73126 241.80464 536.41876 241.33589Q536.10626 240.86714 535.90314 240.16402L538.73126 239.85152Q538.825 240.52339 539.2 240.88277Q539.575 241.22652 540.10626 241.22652Q540.6844 241.22652 541.0594 240.78902Q541.4344 240.35152 541.4344 239.47652Q541.4344 238.58589 541.04376 238.16402Q540.66876 237.74214 540.04376 237.74214Q539.6375 237.74214 539.2625 237.94527Q538.98126 238.08589 538.6375 238.46089L536.27814 238.11714L537.15314 232.74214ZM547.73126 235.63277L545.09064 235.16402Q545.41876 233.89839 546.35626 233.24214Q547.29376 232.57027 548.9969 232.57027Q550.96564 232.57027 551.84064 233.30464Q552.71564 234.02339 552.71564 235.13277Q552.71564 235.78902 552.35626 236.32027Q551.9969 236.83589 551.27814 237.22652Q551.85626 237.38277 552.16876 237.57027Q552.66876 237.88277 552.9344 238.38277Q553.21564 238.88277 553.21564 239.58589Q553.21564 240.46089 552.7625 241.25777Q552.3094 242.05464 551.4344 242.49214Q550.575 242.92964 549.1844 242.92964Q547.8094 242.92964 547.0125 242.61714Q546.23126 242.28902 545.71564 241.67964Q545.21564 241.05464 544.95 240.11714L547.73126 239.74214Q547.8875 240.58589 548.23126 240.91402Q548.575 241.22652 549.10626 241.22652Q549.66876 241.22652 550.04376 240.82027Q550.41876 240.41402 550.41876 239.72652Q550.41876 239.03902 550.0594 238.66402Q549.7 238.27339 549.09064 238.27339Q548.7625 238.27339 548.1844 238.42964L548.325 236.44527Q548.5594 236.47652 548.6844 236.47652Q549.23126 236.47652 549.59064 236.13277Q549.96564 235.77339 549.96564 235.30464Q549.96564 234.83589 549.6844 234.57027Q549.41876 234.28902 548.9344 234.28902Q548.45 234.28902 548.1375 234.58589Q547.84064 234.88277 547.73126 235.63277ZM554.29376 239.96089L557.27814 239.96089L557.27814 242.75777L554.29376 242.75777L554.29376 239.96089ZM560.7 237.36714Q560.04376 237.02339 559.7469 236.58589Q559.325 236.00777 559.325 235.24214Q559.325 233.97652 560.5125 233.17964Q561.4344 232.57027 562.95 232.57027Q564.96564 232.57027 565.91876 233.33589Q566.8875 234.10152 566.8875 235.25777Q566.8875 235.92964 566.4969 236.52339Q566.21564 236.96089 565.60626 237.36714Q566.41876 237.75777 566.8094 238.39839Q567.21564 239.03902 567.21564 239.82027Q567.21564 240.57027 566.8719 241.22652Q566.52814 241.88277 566.0125 242.24214Q565.5125 242.58589 564.7625 242.75777Q564.02814 242.92964 563.16876 242.92964Q561.575 242.92964 560.73126 242.55464Q559.90314 242.17964 559.46564 241.44527Q559.02814 240.71089 559.02814 239.80464Q559.02814 238.92964 559.4344 238.32027Q559.84064 237.71089 560.7 237.36714ZM561.95 235.39839Q561.95 235.91402 562.27814 236.24214Q562.60626 236.55464 563.1375 236.55464Q563.6219 236.55464 563.91876 236.24214Q564.23126 235.92964 564.23126 235.42964Q564.23126 234.91402 563.90314 234.58589Q563.59064 234.25777 563.09064 234.25777Q562.59064 234.25777 562.2625 234.58589Q561.95 234.89839 561.95 235.39839ZM561.79376 239.71089Q561.79376 240.38277 562.2 240.80464Q562.60626 241.22652 563.1219 241.22652Q563.6219 241.22652 564.0125 240.80464Q564.41876 240.36714 564.41876 239.71089Q564.41876 239.03902 564.0125 238.61714Q563.6219 238.19527 563.09064 238.19527Q562.575 238.19527 562.1844 238.61714Q561.79376 239.02339 561.79376 239.71089ZM576.6375 232.57027L578.075 232.57027L572.29376 243.27339L570.85626 243.27339L576.6375 232.57027ZM568.1219 235.19527Q568.1219 234.49214 568.41876 233.86714Q568.73126 233.24214 569.35626 232.91402Q569.98126 232.57027 570.84064 232.57027Q572.10626 232.57027 572.825 233.28902Q573.54376 234.00777 573.54376 235.19527Q573.54376 236.39839 572.825 237.11714Q572.10626 237.83589 570.84064 237.83589Q569.98126 237.83589 569.35626 237.50777Q568.73126 237.16402 568.41876 236.53902Q568.1219 235.89839 568.1219 235.19527ZM570.04376 235.21089Q570.04376 236.05464 570.325 236.44527Q570.4969 236.69527 570.84064 236.69527Q571.1844 236.69527 571.35626 236.44527Q571.6219 236.05464 571.6219 235.21089Q571.6219 234.36714 571.35626 233.97652Q571.1844 233.72652 570.84064 233.72652Q570.4969 233.72652 570.325 233.97652Q570.04376 234.36714 570.04376 235.21089ZM575.35626 240.61714Q575.35626 239.91402 575.65314 239.28902Q575.95 238.66402 576.575 238.32027Q577.21564 237.97652 578.0594 237.97652Q579.325 237.97652 580.04376 238.69527Q580.77814 239.41402 580.77814 240.61714Q580.77814 241.82027 580.04376 242.53902Q579.325 243.25777 578.0594 243.25777Q577.21564 243.25777 576.575 242.91402Q575.95 242.57027 575.65314 241.94527Q575.35626 241.32027 575.35626 240.61714ZM577.27814 240.63277Q577.27814 241.47652 577.54376 241.86714Q577.71564 242.10152 578.0594 242.10152Q578.40314 242.10152 578.575 241.86714Q578.85626 241.47652 578.85626 240.63277Q578.85626 239.78902 578.575 239.39839Q578.40314 239.14839 578.0594 239.14839Q577.71564 239.14839 577.54376 239.39839Q577.27814 239.78902 577.27814 240.63277Z" fill-rule="nonzero"/><path stroke="#757575" stroke-width="1.0" stroke-linecap="butt" d="M581.45 228.25777L446.26666 228.25777L432.28024 228.25777" fill-rule="nonzero"/><path fill="#9e9e9e" d="M434.28024 228.25777C434.28024 227.1532 433.38483 226.25777 432.28024 226.25777C431.1757 226.25777 430.28024 227.1532 430.28024 228.25777C430.28024 229.36234 431.1757 230.25777 432.28024 230.25777C433.38483 230.25777 434.28024 229.36234 434.28024 228.25777" fill-rule="nonzero"/><path fill="#ff9900" d="M91.265625 24.659374L116.59375 24.659374L116.59375 32.14375L108.46875 32.14375L108.46875 51.55L99.390625 51.55L99.390625 32.14375L91.265625 32.14375L91.265625 24.659374ZM118.84375 41.70625Q118.84375 37.20625 121.890625 34.26875Q124.9375 31.33125 130.07812 31.33125Q135.9375 31.33125 138.96875 34.76875Q141.42188 37.55 141.42188 41.596874Q141.42188 46.14375 138.39062 49.065624Q135.375 51.971874 130.09375 51.971874Q125.390625 51.971874 122.453125 49.565624Q118.84375 46.565624 118.84375 41.70625ZM127.140625 41.690624Q127.140625 43.9875 128.0 45.003124Q128.875 46.01875 130.125 46.01875Q131.40625 46.01875 132.25 45.01875Q133.10938 44.01875 133.10938 41.6125Q133.10938 39.39375 132.25 38.39375Q131.39062 37.378124 130.1875 37.378124Q128.89062 37.378124 128.01562 38.409374Q127.140625 39.425 127.140625 41.690624ZM154.60938 24.3L154.60938 31.753124L158.54688 31.753124L158.54688 38.096874L154.60938 38.096874L154.60938 44.159374Q154.60938 45.221874 154.75 45.471874Q154.9375 45.784374 155.5 45.784374Q156.20312 45.784374 158.20312 45.14375L158.85938 51.26875Q155.65625 51.971874 153.28125 51.971874Q150.46875 51.971874 149.04688 51.20625Q147.64062 50.440624 146.96875 48.89375Q146.3125 47.346874 146.3125 44.1125L146.3125 38.096874L143.67188 38.096874L143.67188 31.753124L146.3125 31.753124L146.3125 28.55L154.60938 24.3ZM169.45312 38.971874L161.53125 38.14375Q162.07812 35.6125 162.875 34.503124Q163.67188 33.378124 165.17188 32.55Q166.23438 31.95625 168.03125 31.64375Q169.82812 31.33125 171.875 31.33125Q175.14062 31.33125 177.1875 31.70625Q179.23438 32.08125 180.67188 33.33125Q181.6875 34.221874 182.25 35.8Q182.82812 37.3625 182.82812 38.76875L182.82812 47.01875Q182.82812 48.26875 182.96875 48.95625Q183.125 49.64375 184.0625 51.55L176.10938 51.55Q175.51562 50.4875 175.375 50.065624Q175.25 49.628124 175.375 49.58125Q174.57812 50.534374 173.09375 51.14375Q171.07812 51.971874 168.46875 51.971874Q164.90625 51.971874 163.0 50.26875Q161.09375 48.565624 161.09375 46.05Q161.09375 43.70625 162.48438 42.175Q163.85938 40.659374 167.40625 39.95625Q171.40625 39.159374 172.57812 38.846874Q173.75 38.51875 174.70312 38.14375Q174.70312 37.440624 174.3125 37.08125Q173.9375 36.70625 172.79688 36.70625Q171.21875 36.70625 170.48438 37.175Q169.95312 37.51875 169.45312 38.971874ZM174.70312 42.925Q173.95312 43.190624 172.32812 43.6125Q170.29688 44.14375 169.8125 44.6125Q169.39062 45.01875 169.39062 45.51875Q169.39062 46.1125 169.8125 46.503124Q170.23438 46.878124 171.15625 46.878124Q172.1875 46.878124 173.07812 46.378124Q173.98438 45.8625 174.34375 45.175Q174.70312 44.471874 174.70312 43.26875L174.70312 42.925ZM187.34375 24.659374L195.64062 24.659374L195.64062 51.55L187.34375 51.55L187.34375 24.659374ZM230.0 39.7375L238.0625 42.175Q237.20312 45.753124 235.60938 47.83125Q234.03125 49.89375 231.67188 50.95625Q229.3125 52.003124 225.71875 52.003124Q221.40625 52.003124 218.60938 50.721874Q215.8125 49.440624 213.78125 46.221874Q211.76562 43.003124 211.76562 38.05Q211.76562 31.409374 215.32812 27.815624Q218.90625 24.221874 225.35938 24.221874Q230.39062 24.221874 233.32812 26.3Q236.26562 28.3625 237.89062 33.20625L229.75 35.01875Q229.23438 33.440624 228.89062 32.95625Q228.29688 32.159374 227.45312 31.7375Q226.60938 31.3 225.54688 31.3Q223.14062 31.3 221.875 33.221874Q220.875 34.70625 220.875 38.003124Q220.875 42.08125 222.01562 43.503124Q223.17188 44.909374 225.26562 44.909374Q227.29688 44.909374 228.32812 43.76875Q229.375 42.628124 230.0 39.7375ZM241.60938 24.659374L249.89062 24.659374L249.89062 30.64375L241.60938 30.64375L241.60938 24.659374ZM241.60938 31.753124L249.89062 31.753124L249.89062 51.55L241.60938 51.55L241.60938 31.753124ZM264.23438 24.3L264.23438 31.753124L268.17188 31.753124L268.17188 38.096874L264.23438 38.096874L264.23438 44.159374Q264.23438 45.221874 264.375 45.471874Q264.5625 45.784374 265.125 45.784374Q265.82812 45.784374 267.82812 45.14375L268.48438 51.26875Q265.28125 51.971874 262.90625 51.971874Q260.09375 51.971874 258.67188 51.20625Q257.26562 50.440624 256.59375 48.89375Q255.9375 47.346874 255.9375 44.1125L255.9375 38.096874L253.29688 38.096874L253.29688 31.753124L255.9375 31.753124L255.9375 28.55L264.23438 24.3ZM269.25 31.753124L278.0625 31.753124L281.48438 42.784374L284.64062 31.753124L292.92188 31.753124L285.25 52.471874Q283.9375 56.003124 282.5 57.3Q280.48438 59.128124 276.45312 59.128124Q274.875 59.128124 271.15625 58.64375L270.45312 52.346874Q272.75 53.08125 274.54688 53.08125Q275.625 53.08125 276.26562 52.6125Q276.92188 52.14375 277.3125 51.003124L269.25 31.753124ZM307.3125 51.55L307.3125 24.659374L321.14062 24.659374Q324.92188 24.659374 327.0 25.33125Q329.09375 26.003124 330.39062 27.878124Q331.6875 29.7375 331.6875 32.378124Q331.6875 34.675 330.6875 36.3625Q329.70312 38.034374 328.0 39.08125Q326.89062 39.7375 326.46875 39.690624Q326.59375 39.58125 327.29688 40.1125Q327.8125 40.45625 328.6875 41.565624Q329.5625 42.659374 329.85938 43.26875L334.14062 51.55L323.89062 51.55L319.46875 43.378124Q318.71875 41.95625 318.1875 41.596874Q317.48438 41.096874 316.5625 41.096874L316.42188 41.096874L316.42188 51.55L307.3125 51.55ZM316.42188 35.096874L319.21875 35.096874Q319.70312 35.096874 321.21875 34.753124Q321.8125 34.628124 322.1875 34.14375Q322.5625 33.659374 322.5625 33.003124Q322.5625 32.01875 321.95312 31.503124Q321.34375 30.9875 319.35938 30.9875L316.42188 30.9875L316.42188 35.096874ZM356.64062 51.55L348.84375 51.55L348.84375 49.565624Q348.26562 50.26875 346.64062 51.128124Q345.01562 51.971874 342.65625 51.971874Q339.46875 51.971874 337.625 50.034374Q335.78125 48.096874 335.78125 44.20625L335.78125 31.753124L344.09375 31.753124L344.09375 42.58125Q344.09375 44.128124 344.57812 44.690624Q345.07812 45.253124 346.01562 45.253124Q347.03125 45.253124 347.6875 44.45625Q348.35938 43.64375 348.35938 41.3L348.35938 31.753124L356.64062 31.753124L356.64062 51.55ZM359.57812 45.315624L367.76562 44.534374Q368.28125 46.05 368.92188 46.503124Q369.5625 46.940624 370.71875 46.940624Q371.96875 46.940624 372.60938 46.440624Q373.0 46.159374 373.0 45.753124Q373.0 45.315624 372.48438 45.05Q371.98438 44.8 369.57812 44.3625Q365.79688 43.70625 364.25 43.1125Q362.70312 42.51875 361.59375 41.065624Q360.5 39.6125 360.5 37.7375Q360.5 35.690624 361.67188 34.221874Q362.85938 32.7375 364.85938 32.034374Q366.875 31.33125 370.14062 31.33125Q373.5625 31.33125 375.25 31.878124Q376.95312 32.409374 378.10938 33.58125Q379.26562 34.753124 380.28125 37.378124L372.29688 38.159374Q371.95312 37.003124 371.51562 36.70625Q370.8125 36.2375 369.78125 36.2375Q368.75 36.2375 368.39062 36.51875Q368.03125 36.8 368.03125 37.159374Q368.03125 37.4875 368.42188 37.690624Q369.03125 37.9875 371.28125 38.253124Q374.9375 38.675 376.78125 39.45625Q378.64062 40.221874 379.65625 41.70625Q380.6875 43.175 380.6875 44.940624Q380.6875 46.721874 379.60938 48.39375Q378.54688 50.065624 376.3125 51.034374Q374.07812 51.9875 370.34375 51.9875Q365.0625 51.9875 362.71875 50.425Q360.39062 48.846874 359.57812 45.315624ZM384.09375 24.659374L392.375 24.659374L392.375 33.315624Q392.95312 32.721874 394.48438 32.034374Q396.03125 31.33125 398.125 31.33125Q401.28125 31.33125 403.125 33.284374Q404.96875 35.221874 404.96875 39.128124L404.96875 51.55L396.65625 51.55L396.65625 40.721874Q396.65625 39.175 396.15625 38.628124Q395.65625 38.065624 394.73438 38.065624Q393.70312 38.065624 393.03125 38.878124Q392.375 39.675 392.375 42.01875L392.375 51.55L384.09375 51.55L384.09375 24.659374ZM435.3125 43.08125L443.21875 43.9875Q442.46875 46.8625 441.09375 48.51875Q439.73438 50.175 437.60938 51.08125Q435.5 51.9875 432.3125 51.9875Q429.26562 51.9875 427.1875 51.409374Q425.10938 50.815624 423.59375 49.503124Q422.09375 48.190624 421.21875 46.409374Q420.35938 44.628124 420.35938 41.7375Q420.35938 38.721874 421.40625 36.690624Q422.17188 35.190624 423.5 34.003124Q424.82812 32.815624 426.23438 32.2375Q428.42188 31.33125 431.8125 31.33125Q436.54688 31.33125 439.09375 33.065624Q441.65625 34.8 442.875 38.784374L434.98438 39.83125Q434.59375 38.3625 433.90625 37.8625Q433.23438 37.3625 432.01562 37.3625Q430.5 37.3625 429.54688 38.45625Q428.60938 39.55 428.60938 41.940624Q428.60938 44.01875 429.53125 45.05Q430.46875 46.065624 431.90625 46.065624Q433.125 46.065624 433.9375 45.45625Q434.75 44.846874 435.3125 43.08125ZM445.46875 41.70625Q445.46875 37.20625 448.51562 34.26875Q451.5625 31.33125 456.70312 31.33125Q462.5625 31.33125 465.59375 34.76875Q468.04688 37.55 468.04688 41.596874Q468.04688 46.14375 465.01562 49.065624Q462.0 51.971874 456.71875 51.971874Q452.01562 51.971874 449.07812 49.565624Q445.46875 46.565624 445.46875 41.70625ZM453.76562 41.690624Q453.76562 43.9875 454.625 45.003124Q455.5 46.01875 456.75 46.01875Q458.03125 46.01875 458.875 45.01875Q459.73438 44.01875 459.73438 41.6125Q459.73438 39.39375 458.875 38.39375Q458.01562 37.378124 456.8125 37.378124Q455.51562 37.378124 454.64062 38.409374Q453.76562 39.425 453.76562 41.690624ZM470.07812 45.315624L478.26562 44.534374Q478.78125 46.05 479.42188 46.503124Q480.0625 46.940624 481.21875 46.940624Q482.46875 46.940624 483.10938 46.440624Q483.5 46.159374 483.5 45.753124Q483.5 45.315624 482.98438 45.05Q482.48438 44.8 480.07812 44.3625Q476.29688 43.70625 474.75 43.1125Q473.20312 42.51875 472.09375 41.065624Q471.0 39.6125 471.0 37.7375Q471.0 35.690624 472.17188 34.221874Q473.35938 32.7375 475.35938 32.034374Q477.375 31.33125 480.64062 31.33125Q484.0625 31.33125 485.75 31.878124Q487.45312 32.409374 488.60938 33.58125Q489.76562 34.753124 490.78125 37.378124L482.79688 38.159374Q482.45312 37.003124 482.01562 36.70625Q481.3125 36.2375 480.28125 36.2375Q479.25 36.2375 478.89062 36.51875Q478.53125 36.8 478.53125 37.159374Q478.53125 37.4875 478.92188 37.690624Q479.53125 37.9875 481.78125 38.253124Q485.4375 38.675 487.28125 39.45625Q489.14062 40.221874 490.15625 41.70625Q491.1875 43.175 491.1875 44.940624Q491.1875 46.721874 490.10938 48.39375Q489.04688 50.065624 486.8125 51.034374Q484.57812 51.9875 480.84375 51.9875Q475.5625 51.9875 473.21875 50.425Q470.89062 48.846874 470.07812 45.315624ZM504.35938 24.3L504.35938 31.753124L508.29688 31.753124L508.29688 38.096874L504.35938 38.096874L504.35938 44.159374Q504.35938 45.221874 504.5 45.471874Q504.6875 45.784374 505.25 45.784374Q505.95312 45.784374 507.95312 45.14375L508.60938 51.26875Q505.40625 51.971874 503.03125 51.971874Q500.21875 51.971874 498.79688 51.20625Q497.39062 50.440624 496.71875 48.89375Q496.0625 47.346874 496.0625 44.1125L496.0625 38.096874L493.42188 38.096874L493.42188 31.753124L496.0625 31.753124L496.0625 28.55L504.35938 24.3Z" fill-rule="nonzero"/></svg>